<svg width="235" height="129" viewBox="0 0 235 129" fill="none" xmlns="http://www.w3.org/2000/svg">
<g clip-path="url(#clip0_21_251)" opacity="0.55">
<path d="M14.3812 5.58314C14.3529 5.36514 14.303 5.14315 14.2747 4.92515C13.7737 5.71456 13.2895 6.44623 12.8607 7.11718C13.3133 6.65328 13.8431 6.13264 14.3812 5.58314Z" fill="white"/>
<path d="M61.5355 14.4408C62.2777 13.9998 62.5878 13.5299 62.5695 13.0402C61.8573 13.4563 61.4174 13.9022 61.5355 14.4408Z" fill="white"/>
<path d="M-0.197836 -4.85572C-5.41938 -1.78358 -5.28513 -2.14393 -4.57509 -2.76313C-8.36658 -0.41074 -12.0804 1.93567 -15.6994 4.26913C-10.292 1.21091 -5.12205 -1.84033 -0.185073 -4.87364L-0.197836 -4.85572Z" fill="white"/>
<path d="M159.904 90.3334C159.3 89.6359 158.754 88.9357 158.267 88.2445C157.054 84.9099 157.507 86.0617 155.776 83.1672C157.937 86.7555 157.653 86.915 157.407 87.0766C157.141 87.2314 156.895 87.393 157.65 90.8833C157.385 90.3787 157.14 89.8808 156.934 89.3849C157.051 89.4645 156.983 89.055 157.096 89.1231C156.425 87.4298 156.636 88.6812 156.616 90.2247C156.632 91.7588 156.435 93.5803 155.661 93.0371C155.132 92.4788 154.963 91.4608 155.293 90.6667C154.957 91.2181 154.562 91.7605 154.106 92.2942C153.816 92.1377 154.162 90.9612 154.392 91.1088C153.892 91.2511 153.339 91.4074 152.782 91.5523L152.866 91.3596C152.272 92.3931 151.115 93.9883 150.268 94.6362C149.83 93.615 151.05 93.9566 151.194 93.1132L148.533 94.5996C148.549 93.7041 149.136 92.8675 149.888 92.2934C150.254 92.003 150.676 91.7832 151.065 91.6575C151.259 91.5947 151.46 91.5547 151.627 91.5355C151.834 91.5184 151.971 91.5314 152.001 91.5725C152.34 90.7395 152.371 90.1211 152.393 89.6882C152.414 89.2553 152.37 89.0105 152.262 88.892C152.068 88.6617 151.661 88.9386 151.158 89.2893C150.137 90.0068 148.705 91.0631 147.667 88.9894L149.876 88.2679C150.461 84.4041 148.416 85.6812 147.456 83.1719C147.365 84.441 148.809 89.4001 145.947 90.9265C145.595 90.3833 144.925 90.0937 143.182 91.3532C144.271 88.982 142.906 89.4838 141.461 89.5303L143.021 86.3896C141.103 87.1942 140.487 88.8072 138.96 90.1571C137.449 89.7323 138.228 87.2712 138.799 85.1936C136.379 84.517 138.814 89.2305 135.403 89.6056C133.748 88.2541 131.601 89.4355 128.093 91.1301C127.053 89.9357 129.265 89.2257 129.117 88.2876L126.582 90.7053C126.274 90.6267 126.745 89.8572 126.97 89.469C125.362 90.3636 125.41 92.6097 123.204 93.3426C121.105 96.7701 121.82 88.0259 117.762 91.8049C117.616 90.8783 118.931 89.889 119.321 88.6642C115.031 91.0384 115.813 90.3588 111.671 93.6711L110.48 91.4539C110.971 93.9266 107.652 96.5728 104.807 98.7539C104.845 99.9284 104.864 100.961 104.956 101.462L101.34 102.965C101.239 102.43 102.016 101.361 103.1 100.077C102.783 100.331 102.48 100.568 102.232 100.792C101.758 99.5599 103.133 97.7735 104.664 96.0687C104.717 96.7141 104.761 97.3986 104.784 98.0763C106.369 96.2109 108.015 94.1345 108.723 92.2897C108.373 92.6373 107.873 92.9262 107.394 93.0753C107.816 92.5624 108.14 92.1119 108.209 91.7887C108.276 91.454 107.646 92.1305 106.811 92.8974L107.803 89.3429L106.993 90.7257L104.307 88.2873C103.241 89.1264 102.145 90.071 101.012 91.025C100.018 91.9919 99.1669 92.9948 98.0438 93.9098C95.8963 95.7506 93.2466 97.2827 90.5743 97.844C93.659 95.4052 94.1877 93.7537 96.7915 90.793C95.8081 92.3919 96.7089 92.0963 97.7569 91.4817C98.8257 90.8739 99.9997 89.9335 100.403 90.3046C99.9399 89.9246 100.968 88.4972 101.358 88.0051C100.24 88.943 98.9258 89.859 97.3958 90.7577C99.3497 88.3202 98.3886 88.9 98.8268 87.8581C95.0388 92.6776 94.2574 90.9276 91.587 92.3064C93.3602 90.7217 95.4355 89.1193 96.0123 89.5674C97.3192 87.7378 95.6061 89.1116 93.4651 90.5357C91.4019 91.9639 88.9438 93.4217 90.1366 91.8904C90.4956 91.8702 90.3696 92.1227 91.5075 91.3382C90.283 92.011 89.5051 92.0426 89.3859 91.7318C89.2667 91.421 89.8509 90.7928 91.0215 90.134L91.3446 90.1232C90.8155 89.7848 89.5831 89.6905 87.4016 90.1484C85.241 90.6132 81.9518 91.6036 77.8388 93.48C78.8446 92.9984 87.2475 89.041 89.0915 88.1703C79.5994 92.3625 68.7431 96.4702 56.4989 100.475C60.5936 98.8968 66.6165 96.1814 72.6301 93.6516C78.6258 91.1265 84.4596 88.79 87.1682 87.9262C87.83 87.4487 88.8151 86.8871 85.2416 87.9638C84.2687 88.4246 74.618 92.597 73.3821 92.8577C77.0702 91.0431 78.1359 90.5703 78.9263 90.1449C79.7555 89.7215 80.3154 89.3682 83.7908 87.8409C83.0574 88.1905 79.2771 89.5774 75.5657 90.8609C71.8543 92.1444 68.1461 93.2928 67.868 93.182C70.0768 92.4606 81.4955 88.3773 83.1505 87.8855C78.1494 89.4437 72.876 90.9872 67.2915 92.5141C70.4518 91.6915 79.44 88.5095 83.3041 87.1496C80.5745 88.0799 82.359 86.9806 80.5005 87.4277C79.5038 87.797 78.528 88.1731 77.5912 88.5513C77.9688 88.0134 67.8203 90.8626 59.7133 92.7898C56.2749 93.5749 53.9558 93.9466 55.1475 93.2213C58.0233 92.6315 74.7795 88.2088 77.4494 87.1964C73.6248 88.1187 64.4675 90.2826 56.34 91.8366C48.1438 93.4207 41.0554 94.3258 39.9403 93.7248L44.6479 92.4384C43.8764 92.1997 43.1528 91.9241 42.51 91.5909C46.8783 91.2107 53.6941 90.5842 60.9204 89.5456C68.0987 88.5438 75.6994 87.1025 80.0864 86.2048C84.0848 84.9931 85.4433 84.8348 85.6591 84.4856C89.8519 83.4309 91.4975 83.2711 91.653 83.2795C92.8772 82.8265 94.0176 82.4198 95.131 82.0567C86.6173 83.8944 87.7612 83.0594 81.151 84.2551C83.1853 84.2628 85.4652 84.1088 87.9696 83.7865C83.6424 84.7664 77.7412 85.9606 73.6629 86.4973C69.5337 87.0594 67.2542 86.9202 68.9996 86.0386C70.8191 85.5894 74.1435 85.1025 77.411 84.6182C80.6785 84.1339 83.9072 83.6476 85.2447 83.4093C82.6445 83.8053 81.4455 83.3239 83.3875 82.9771C84.5244 82.9253 85.6763 82.8574 86.8761 82.7527C88.5849 82.3201 86.3379 82.5265 84.7882 82.5392C83.2056 82.5727 82.3353 82.3964 86.0607 81.7563C86.4289 81.6238 88.8496 81.2745 90.591 81.041C92.3504 80.8027 93.4845 80.6663 91.5607 80.7886C83.7695 81.4981 59.3513 83.9597 54.529 83.7743C54.9211 83.6601 57.7613 82.7865 60.9007 81.9571C64.0401 81.1277 67.4306 80.3794 69.4713 80.1168C72.6519 79.7406 75.4307 80.0306 78.2876 80.1782C81.1144 80.358 84.0073 80.4229 86.5953 80.201C84.9349 80.2303 83.212 80.0195 82.7245 79.9144C84.5109 79.6326 87.6367 80.0031 87.6494 79.4627C81.9207 79.2569 89.814 78.2766 83.1146 79.056C82.4066 78.3247 85.2485 78.4151 86.0004 77.6944C84.1247 77.6333 81.4238 77.2009 79.3456 76.5088C77.2524 75.8329 75.8147 74.8764 75.8544 74.219C76.9999 74.4946 78.8995 74.574 79.737 74.6245C82.8119 72.8108 85.9745 72.5126 88.1305 70.9991C89.2341 71.2612 91.1758 71.1343 92.2454 72.2232C91.917 71.6983 90.9488 70.9248 91.6197 70.3351C93.7403 70.6743 93.4346 71.0468 93.1469 71.488C92.874 71.9131 92.8855 72.2519 94.9457 73.0219C94.5004 72.7105 94.1268 72.4538 93.9897 72.0744C93.8376 71.7111 93.8142 71.3265 93.8447 70.9279C93.9086 70.1421 94.1729 69.3164 94.1291 68.5587C92.5057 67.7726 91.7573 68.1384 91.3943 68.8799C91.2233 69.254 91.1538 69.7238 91.1233 70.1957C91.0927 70.6676 91.2507 71.0537 91.337 71.3853C87.0441 69.1088 84.9106 65.0372 85.5967 62.0751C86.6466 59.995 89.0687 63.0392 88.8541 62.4358C93.3896 60.1199 85.1565 55.7437 91.2213 55.2516C95.0227 55.9346 96.3447 58.3618 98.4496 59.3033C97.7471 61.0977 94.2751 60.1335 93.2568 61.009L95.8568 60.7595C96.1697 61.667 95.6954 62.8648 94.3672 62.8443C97.702 63.5023 101.299 58.464 106.38 57.6542C106.049 56.7514 106.08 55.5468 104.633 55.2155L104.042 56.1139C101.129 55.456 102.966 53.0855 100.827 53.3372C100.647 51.5406 99.7857 49.1156 102.709 48.5621L105.935 50.1275C105.056 49.6237 103.052 49.877 103.439 50.7772C102.882 49.4451 110.089 51.2804 107.095 48.3239L103.838 47.9631C103.634 46.1483 102.115 43.1131 104.617 42.5596C101.044 41.28 104.584 43.02 100.107 41.7314C105.244 43.6417 95.9207 44.5058 101.842 46.1142C96.8032 44.508 98.2066 46.5112 93.4034 45.5151C94.4138 46.0823 95.7687 46.2789 93.9818 46.9272C94.2089 47.1367 94.4089 47.4631 94.5373 47.6616C94.4655 47.6803 94.4475 47.685 94.3697 47.6808C94.4296 47.6897 94.4894 47.6985 94.5462 47.6959C94.6388 47.8305 94.6627 47.8487 94.606 47.7048C95.3449 47.7444 96.1076 47.8755 96.7295 48.1287C98.2797 49.9593 96.1118 51.427 96.5439 52.6453C95.311 52.9173 95.7673 51.7242 94.3198 51.3929L94.9666 53.2145C92.7425 51.9622 89.3552 52.5021 89.9594 50.4037L88.2017 51.5327C86.0418 51.4845 84.222 52.1535 84.2743 53.3119C83.0414 53.584 84.6593 56.1905 83.6681 54.6661L82.3931 57.3542L81.834 57.048C80.4209 57.8798 79.9671 59.3774 79.047 60.6303C78.8222 60.9451 78.5525 61.2351 78.238 61.5001C77.9056 61.7697 77.6092 61.9568 76.8877 62.3521C75.5884 63.0321 73.9422 63.5583 71.6412 63.9253C70.7957 65.2441 70.2316 66.5386 67.1123 67.9609L64.214 67.58C63.6953 68.3865 61.6539 69.2353 59.8846 70.0987C58.1334 70.9574 56.7022 71.7938 57.7576 72.3127C52.9259 72.4594 49.8749 74.2913 47.6166 76.222C45.3283 78.185 43.9465 80.1684 41.348 81.4552L45.8834 81.4222C43.3383 83.0614 42.4746 84.6047 41.8829 86.3092L46.6584 85.7254C47.4803 86.305 45.3489 87.3237 42.4841 88.6188C39.6343 89.8978 36.0183 91.4738 34.4819 92.7161C32.6926 92.9133 34.1596 92.1408 36.0003 91.4785C27.9583 94.0236 27.5225 95.5165 28.0836 96.4937C28.5489 97.5445 30.0171 98.1024 23.0699 100.729C24.3472 100.848 22.9282 101.51 20.6563 102.431C20.7192 102.378 20.6923 102.349 20.5577 102.347C20.3901 102.44 20.2254 102.543 20.0816 102.654C18.57 103.255 16.843 103.912 15.3223 104.552C17.2978 103.818 18.959 103.203 19.89 102.802C19.3359 103.251 18.9941 103.78 19.3288 104.108C19.625 104.067 19.9422 104.033 20.2593 104L13.9173 106.005C14.1238 105.987 14.2045 106.003 14.4469 105.977C13.3777 106.804 18.7859 105.116 23.2545 103.574C25.0409 103.292 26.983 102.945 29.0508 102.493C24.1273 104.128 25.9705 103.917 27.67 103.743C29.4054 103.56 30.9762 103.408 26.2829 105.191C32.4957 103.574 37.0569 104.376 47.6821 100.78C46.407 101.259 46.1255 101.503 45.4135 101.493C45.5444 101.996 45.8309 102.508 49.6854 101.553L43.4622 104.235C47.5443 103.124 51.4679 101.992 55.2389 100.864C52.9479 102.596 51.7559 103.614 44.9353 105.549C51.0252 104.122 52.4945 103.874 53.9667 103.637C55.397 103.387 56.8303 103.148 61.7955 101.673L58.0535 103.428C58.7835 103.433 60.8275 102.889 62.3807 102.521C63.9338 102.154 65.0171 101.969 64.0258 102.728C62.3062 104.519 65.9525 104.9 70.1552 105.283C74.4178 105.675 79.0783 106.049 81.7352 108.007C83.3904 105.159 83.7425 105.849 84.235 106.709C84.7274 107.57 85.5577 108.624 87.2329 106.442C86.7255 107.807 87.4424 108.646 85.2451 109.706C90.3083 108.681 91.3175 112.337 94.5893 108.702C94.2793 110.089 93.0819 110.645 92.9731 111.479C93.3414 111.2 94.4076 110.361 94.3167 111.19C94.2259 112.02 93.3788 112.301 92.6631 112.866C95.6069 112.832 97.8413 108.674 99.854 104.768C100.438 106.716 101.267 106.512 103.508 104C103.41 105.319 103.621 106.717 101.64 107.062C102.549 107.314 106.818 109.352 108.381 106.223C108.326 107.043 109.655 106.551 110.083 106.207C112.225 106.553 112.281 106.844 114.6 106.692L114.227 106.142C116.859 102.405 116.436 105.42 118.417 105.076L118.189 105.453C120.949 108.47 120.545 104.265 123.077 107.659L123.954 105.283C126.686 100.237 126.098 108.509 129.316 106.731L129.103 105.322C131.166 103.674 129.428 112.465 130.402 113.188C130.464 113.648 129.638 113.863 129.103 114.161C131.034 117.382 130.97 111.099 133.78 110.55C133.455 112.247 131.232 114.754 132.742 115.179C132.953 116.577 140.084 110.094 140.879 113.439C140.976 112.12 141.074 110.801 142.666 109.922C142.924 109.879 143.109 109.929 143.369 110.044C143.686 110.157 144.003 110.343 144.326 110.552C144.975 110.982 145.656 111.537 146.403 111.977C147.901 112.869 149.743 113.317 151.239 111.329C151.51 111.71 151.585 112.069 151.554 112.394C153.748 111.469 158.147 111.057 158.892 108.836C160.199 113.123 163.422 112.32 165.688 111.377C168.032 110.437 169.589 109.348 171.767 113.371L177.628 113.347L178.073 114.172C182.523 114.991 182.34 113.11 181.73 111.205C183.081 111.83 183.212 112.553 183.534 112.982C190.625 115.031 191.591 114.767 190.642 110.827L194.587 113.609C194.241 112.942 196.786 113.805 200.081 114.754C203.338 115.701 207.462 116.74 209.15 116.301C208.78 115.689 208.254 114.995 207.552 114.214C208.084 114.564 208.969 115.163 209.686 115.856C208.082 113.966 207.907 112.925 208.246 112.092C208.588 111.27 209.466 110.664 209.996 109.903C211.063 108.404 210.797 106.276 202.863 102.384C201.366 100.979 199.869 99.6471 198.407 98.3793C198.226 99.745 196.519 98.9319 194.588 97.9208C192.671 96.8935 190.54 95.7026 189.418 95.7382C188.848 95.0932 189.829 94.8865 191.091 94.9486C192.339 95.0268 193.876 95.408 194.437 96.2385L193.734 96.1896C197.768 97.8377 198.233 97.1185 198.333 96.1769C198.436 95.2466 198.225 94.1417 200.865 94.8583C199.808 91.4589 199.899 88.3465 200.014 84.9592C200.138 81.6062 200.272 77.9944 199.517 74.504C197.799 75.1221 196.09 75.7013 194.354 76.2508L194.111 74.0675C195.195 73.2238 198.027 72.2426 198.252 73.9909C199.644 73.2256 198.813 72.6117 197.53 72.323C196.277 72.1487 194.536 72.309 193.97 72.4196C195.526 69.7071 200.313 71.6719 200.266 70.976L199.636 70.1756L199.079 70.5403C196.734 70.3694 194.454 70.8897 194.36 69.498C195.199 68.3761 197.497 68.2175 197.608 67.8345C197.985 67.7364 198.135 67.5753 197.639 67.2894L197.579 65.2174L193.633 67.0745C191.36 66.7384 193.369 65.1776 188.9 67.3055C195.809 64.0909 189.608 59.3445 191.641 57.9485C188.309 57.5217 188.05 56.3072 188.026 54.7388C187.259 55.329 182.65 56.7729 182.891 55.3428C192.638 53.3063 186.465 51.9098 193.11 49.0813C188.754 51.204 191.032 45.7399 184.892 48.8886C185.406 47.6196 188.484 47.8805 190.538 46.4912C186.142 44.9252 191.504 40.2578 189.431 37.4521C188.144 37.7382 186.36 38.7643 184.299 38.5805L190.188 35.2774C189.417 34.8189 182.749 36.6033 186.836 34.3309C185.818 34.7668 184.282 35.4229 183.762 35.1187C188.32 27.3643 175.446 23.8665 185.381 14.6023C183.142 16.0887 182.762 15.5892 182.503 14.9609C182.021 15.5382 179.379 15.7741 177.691 16.2868L181.767 12.4299C176.884 13.1883 180.715 9.71274 176.101 10.6209L177.141 11.2291C171.486 11.529 165.62 15.8761 158.701 17.5062C165.128 17.1519 150.514 23.1044 159.768 22.8566C158.483 23.6671 157.443 23.0589 155.925 23.7103C159.004 23.4583 159.775 23.9168 158.762 25.4013L157.993 25.4672C159.551 28.5045 157.002 30.6452 156.006 34.7744L159.331 33.6281C159.085 34.5224 158.049 34.9629 157.3 35.5485C162.686 35.0989 157.019 33.2899 162.923 32.62C156.259 35.4532 164.244 38.1362 156.56 40.8809C156.837 42.0907 160.4 39.5028 160.677 40.7127L158.624 41.589L161.448 41.1712C161.205 42.077 158.63 43.1621 156.844 43.6638C157.009 43.4134 156.201 43.2573 155.986 43.0936C153.737 44.7655 157.595 45.7391 156.861 46.3085L157.871 44.8125C160.716 47.5638 158.953 52.2832 164.102 54.3125L165.638 53.6564C169.228 55.2977 164.381 56.0468 166.433 58.3327L166.032 58.3394C167.767 58.4493 168.76 58.9479 168.771 59.7264C166.713 59.554 165.453 61.9329 163.141 61.5947C167.019 63.3811 165.991 62.2324 172.402 62.4071L169.831 63.5037C172.388 63.4605 173.678 63.1858 174.721 64.3184C172.158 63.8258 170.883 66.2208 167.551 65.7941C162.438 70.0915 174.494 68.3818 166.316 71.8778C174.026 71.226 169.785 68.4111 171.55 68.7087C173.801 67.4878 177.336 68.3256 176.826 69.3862C176.897 70.3201 167.774 73.354 168.498 75.5462C168.477 75.3196 167.915 75.4416 167.894 75.215C166.226 76.5404 170.869 76.1863 168.082 77.9985C172.702 77.4064 168.176 79.3902 173.894 78.0848L172.051 76.3793C173.833 77.1119 180.813 76.6745 177.95 78.8603C176.747 78.9537 175.114 78.8661 174.199 78.8113C172.603 79.5319 175.514 79.299 173.859 80.0107C167.991 80.8178 172.325 79.2013 167.548 78.6012C166.423 79.2117 167.601 79.5398 168.289 79.8247C168.905 79.9085 169.021 79.988 165.906 80.6158C169.88 79.8255 169.718 80.234 169.317 80.607C168.906 81.0191 168.245 81.35 171.458 81.3927L167.903 81.7319C168.486 81.7632 170.213 81.8389 170.197 82.0748C168.621 82.0579 167.053 82.0753 165.497 82.1384C167.517 82.1621 166.726 82.5143 165.673 82.7397C164.626 82.9879 163.315 83.1093 164.458 83.3002C164.312 82.9598 165.386 82.8878 166.837 82.8641C168.267 82.8337 170.094 82.9317 171.336 82.6207C173.977 83.4105 171.682 83.7271 168.912 83.7646C166.156 83.8592 162.97 83.6996 163.969 84.221C163.694 84.1217 164.223 84.0937 165.049 84.0986C165.875 84.1034 166.978 84.1457 167.885 84.3859C167.184 84.5682 165.811 84.6693 163.834 84.4393C164.309 84.7917 165.299 84.9857 166.448 85.1262C167.617 85.2735 168.933 85.3216 170.156 85.7479C167.865 85.4898 168.368 85.652 169.662 86.0597C170.954 86.4559 173.036 87.0861 173.867 87.5535L169.913 86.5804C167.642 86.9885 178.31 89.2292 175.551 89.6788C173.631 88.8599 171.724 88.0868 169.834 87.3823C170.357 87.6978 170.889 88.0477 171.421 88.3975L166.775 86.7503C170.32 88.3667 169.519 88.38 168.307 88.2925C171.193 89.3605 175.842 91.4588 176.167 92.2654C173.783 91.5795 172.131 90.2394 172.934 91.3366C170.229 89.8556 166.919 88.2632 170.684 89.6883C169.311 89.0566 168.026 88.3902 166.68 87.7881C163.89 86.793 166.186 88.0999 166.291 88.3535C166.428 88.3665 166.647 88.3951 167.227 88.6348C169.247 89.8424 171.304 91.1872 173.414 92.6645C171.85 91.9606 170.493 91.093 169.193 90.2961C169.707 90.7239 171.737 91.9658 172.188 92.5198C168.63 90.4181 164.977 88.3169 163.265 87.1878C164.604 88.0601 165.964 89.0124 167.344 90.0447C166.176 89.3845 164.391 88.4207 162.983 87.5786C162.523 87.2833 162.367 87.2017 161.91 86.9178C161.865 86.8929 161.862 86.8814 161.796 86.8497C161.796 86.8497 161.796 86.8497 161.793 86.8383C160.63 86.201 162.194 87.2713 163.392 88.2657C164.629 89.2621 165.463 90.1806 163.971 89.3114C164.485 89.7392 164.951 90.1306 165.163 90.4294C164.439 90.1539 163.154 89.3408 162.446 88.9759C161.716 88.6042 161.596 88.6598 162.564 90.0927C161.156 88.8109 159.845 87.5286 158.632 86.2573C158.856 86.6751 159.934 87.8716 161.168 89.1498C162.381 90.4211 163.749 91.7741 163.554 92.4232C163.367 93.5462 160.62 89.1824 159.557 88.1163C160.127 89.0545 160.858 90.4635 160.968 91.2529C161.095 92.0377 160.58 92.1961 159.413 90.6565C159.351 89.9768 159.844 90.5444 159.949 90.2851L159.904 90.3334ZM145.974 90.9561C146.716 90.4942 148.463 89.0264 148.182 90.4545C146.33 93.1342 146.481 91.8007 145.974 90.9561ZM102.977 93.9319C103.72 93.177 104.138 93.6053 104.382 94.5428C103.811 94.7038 103.299 94.5806 102.977 93.9319ZM88.1874 53.3188C88.1874 53.3188 88.2052 53.3874 88.253 53.4238C86.4399 53.5295 87.1251 53.5099 88.1874 53.3188ZM91.0992 52.5731C90.974 52.2394 90.6362 52.0466 90.2355 51.9067C90.6807 52.3646 90.2883 52.6987 89.6418 52.9402C90.3654 53.2158 91.0384 53.297 91.0963 52.5616L91.0992 52.5731ZM196.273 68.0842L195.456 68.6267C194.269 68.1909 195.235 68.1469 196.273 68.0842Z" fill="white"/>
</g>
<defs>
<clipPath id="clip0_21_251">
<rect width="235" height="129" fill="white"/>
</clipPath>
</defs>
</svg>
