<svg width="174" height="105" viewBox="0 0 174 105" fill="none" xmlns="http://www.w3.org/2000/svg">
<g clip-path="url(#clip0_20_2)">
<path d="M91.9299 1.72C92.3199 1.66 91.3399 0.29 91.2299 0C90.8999 0.63 92.1699 2.08 91.9299 1.72Z" fill="white"/>
<path d="M88.73 8.10094L88.47 7.46094L88.57 9.35094L88.73 8.10094Z" fill="white"/>
<path d="M83.8799 10.9884C85.8099 13.1584 85.3899 9.53844 86.7799 9.87844L87.2599 10.3484L86.4599 8.14844C85.5999 9.08844 85.0299 11.2184 83.8799 10.9784V10.9884Z" fill="white"/>
<path d="M78.1099 7.27125C78.8399 8.12125 78.0499 8.42125 78.8899 7.20125C78.7699 7.13125 78.7199 7.08125 78.6399 7.03125C78.5399 7.11125 78.3999 7.19125 78.1099 7.27125Z" fill="white"/>
<path d="M78.6399 7.02046C79.1099 6.64046 77.8299 6.42046 78.6399 7.02046Z" fill="white"/>
<path d="M76.6099 8.98922L76.7699 7.73922C76.2899 7.25922 75.6199 7.49922 75.5899 6.94922C75.1799 7.82922 75.6599 8.29922 76.6099 8.98922Z" fill="white"/>
<path d="M77.0499 11.1619L77.1799 10.5919C76.9799 10.3919 76.8299 10.3619 77.0499 11.1619Z" fill="white"/>
<path d="M77.4599 9.38109L77.1799 10.5811C77.5099 10.9111 77.9999 11.7011 77.3499 10.1011C77.7299 10.8611 77.4499 10.0811 77.4599 9.37109V9.38109Z" fill="white"/>
<path d="M78.1099 9.50016C78.8099 9.80016 79.4999 9.85017 79.3299 11.1002C80.4099 9.99017 79.1799 8.39016 78.1099 9.50016Z" fill="white"/>
<path d="M85.1598 13.67L86.0998 14.08L86.0398 13C86.0698 13.54 84.6698 12.92 85.1598 13.67Z" fill="white"/>
<path d="M71.6699 10.25C71.9399 10.8 72.7299 11.5 73.1899 12.14L73.3199 11.24C72.8499 11.04 72.1699 11 71.6699 10.25Z" fill="white"/>
<path d="M73.19 12.1289L72.99 13.4689C73.71 13.1689 73.58 12.6789 73.19 12.1289Z" fill="white"/>
<path d="M78.5699 13.9381L78.6599 11.3281L78.3599 14.1081L78.5699 13.9381Z" fill="white"/>
<path d="M68.8 11.8914L68.49 10.4414L68.84 12.7114L68.8 11.8914Z" fill="white"/>
<path d="M67.0499 13.24C66.7599 12.05 65.5999 11.81 65.5599 11C65.1599 11.49 65.2399 12.61 65.3099 13.61C65.4699 12.93 65.9799 12.77 67.0399 13.24H67.0499Z" fill="white"/>
<path d="M65.3299 15.1294C65.3899 14.7694 65.3499 14.2094 65.3099 13.6094C65.2299 13.9694 65.2099 14.4394 65.3299 15.1294Z" fill="white"/>
<path d="M71.5698 13.9816C71.3198 13.7016 70.7198 12.9416 70.0898 12.8516L71.2698 14.1416C71.3598 14.0916 71.4698 14.0416 71.5698 13.9916V13.9816Z" fill="white"/>
<path d="M71.2998 14.1689L71.2598 14.1289C70.9198 14.2889 70.6798 14.3889 70.5798 14.4289C70.6698 14.3989 70.8898 14.3189 71.2998 14.1689Z" fill="white"/>
<path d="M71.6398 13.9414C71.6398 13.9414 71.5898 13.9614 71.5598 13.9814C71.6798 14.1114 71.7198 14.1414 71.6398 13.9414Z" fill="white"/>
<path d="M75.8298 13.7891C75.8898 14.8691 75.5098 16.2991 77.1398 17.0091C76.8498 15.8191 75.9198 15.4091 75.8298 13.7891Z" fill="white"/>
<path d="M73.1099 15.5495L74.0999 15.4095C73.8499 15.0295 73.3699 14.5495 73.3399 14.0195L73.1099 15.5495Z" fill="white"/>
<path d="M73.01 16.2508L73.11 15.5508L72.74 15.6008L73.01 16.2508Z" fill="white"/>
<path d="M67.5099 15.6795C67.5599 16.5195 67.2199 16.7995 66.8599 17.1595C67.4799 17.1795 68.0399 17.0495 68.4799 16.7795C68.2699 16.2795 67.9599 15.3395 67.5099 15.6895V15.6795Z" fill="white"/>
<path d="M69.4299 15.0781C69.4299 15.0781 69.4099 15.1581 69.4099 15.2081C69.5299 15.3081 69.5899 15.3181 69.4299 15.0781Z" fill="white"/>
<path d="M62.71 19.6511C62.78 19.7211 62.86 19.8011 62.94 19.8811C62.89 19.7911 62.85 19.7111 62.8 19.6211L62.71 19.6611V19.6511Z" fill="white"/>
<path d="M68.72 17.0012C69.23 17.0812 69.22 16.6012 69.14 16.0312C68.97 16.3313 68.76 16.5912 68.48 16.7712C68.58 17.0012 68.66 17.1412 68.72 17.0012Z" fill="white"/>
<path d="M64.59 16.5096C64.95 16.7096 65.31 16.8496 65.66 16.9596C65.21 16.5996 64.42 16.0896 64.59 16.5096Z" fill="white"/>
<path d="M69.0399 14.8711C69.0399 14.8711 69.0399 14.8011 69.0499 14.7711C68.7499 14.5311 68.8599 14.6711 69.0399 14.8711Z" fill="white"/>
<path d="M69.0399 14.8711C68.9899 15.1911 69.0699 15.6311 69.1299 16.0411C69.2599 15.8011 69.3599 15.5311 69.3999 15.2111C69.2999 15.1311 69.1599 15.0011 69.0399 14.8711Z" fill="white"/>
<path d="M67.1399 29.7989C66.3799 28.4089 66.51 26.6189 68.16 27.6089C68.3 26.1389 65.11 21.9789 62.95 19.8789C63.28 20.4889 63.61 21.0289 63.32 22.2989C64.04 22.8689 66.09 22.9889 66.18 24.6089C65.57 25.9289 65.05 24.6389 64.11 24.2289C65.56 25.6589 64.28 27.4789 66.01 29.8289L66.3899 28.4089C66.6399 28.7889 66.69 29.5989 67.15 29.7989H67.1399Z" fill="white"/>
<path d="M64.51 19.1198L64.73 18.7598C64.22 18.7398 63.63 18.3598 62.51 17.5898C62.38 18.5798 62.57 19.1398 62.81 19.6198L64.5 18.8598V19.1298L64.51 19.1198Z" fill="white"/>
<path d="M66.16 17.8809C66.8 19.5109 66.41 20.6009 67.85 21.9109C68.73 21.2409 67.76 20.2809 67.94 19.3009C66.65 20.5809 67.88 18.2209 66.28 18.0409C66.43 17.6109 66.65 17.3709 66.86 17.1609C66.48 17.1509 66.08 17.0809 65.67 16.9609C65.71 16.9909 65.73 17.0109 65.76 17.0309L65.77 17.0409C65.95 17.1909 66.04 17.2909 65.9 17.2309C65.9 17.2509 65.9 17.2709 65.89 17.2809C66 17.4909 66.08 17.6909 66.16 17.8809C65.54 17.8409 65.86 17.5409 65.89 17.2809C65.85 17.2009 65.82 17.1309 65.77 17.0509H65.75L64.72 18.7609C65.17 18.7709 65.54 18.4909 66.15 17.8909L66.16 17.8809Z" fill="white"/>
<path d="M78.25 20.6811C78.12 20.5811 78.06 20.4711 77.99 20.3711C78 20.6111 78.04 20.7611 78.25 20.6811Z" fill="white"/>
<path d="M77.0899 20.1591C77.0799 19.8891 76.8099 19.2391 77.2599 19.1791C77.8399 19.4291 77.6899 19.8891 77.9999 20.3591C77.9799 19.8391 78.1199 18.8391 76.9999 18.5391V18.8091C76.0999 18.6691 74.1999 17.3091 74.1799 17.0391C75.1599 18.2591 75.8899 19.1091 77.0799 20.1691L77.0899 20.1591Z" fill="white"/>
<path d="M71.81 19.4297L70.98 20.9197L72.4 21.8097L71.9 21.0597C72.8 20.9297 72.08 20.0797 71.81 19.4297Z" fill="white"/>
<path d="M62.1299 18.9998L61.3499 17.3398L61.9499 19.9898L62.1299 18.9998Z" fill="white"/>
<path d="M60.5898 20.1791L59.8398 18.7891L59.8998 19.8691L60.5898 20.1791Z" fill="white"/>
<path d="M80.51 72.0597L80.74 71.6797C80.65 71.7897 80.57 71.9197 80.51 72.0597Z" fill="white"/>
<path d="M79.4799 71.3984L79.1399 72.0984C79.3699 71.7284 79.5099 71.4484 79.4799 71.3984Z" fill="white"/>
<path d="M5.58991 53.6289C4.08991 53.8589 2.46991 54.1089 1.09991 54.3189C-0.150088 54.6689 -0.690088 54.9389 1.46991 54.8089L4.65991 54.5189C4.26991 54.4189 3.97991 54.3289 3.78991 54.2389C4.12991 54.0089 4.79991 53.8089 5.58991 53.6289Z" fill="white"/>
<path d="M53.06 67.9406C53.09 67.7606 53.11 67.5706 53.14 67.3906C52.73 67.8506 52.34 68.2706 51.99 68.6606C52.31 68.4406 52.68 68.2006 53.06 67.9406Z" fill="white"/>
<path d="M56.7898 61.7891L57.0098 63.1691C57.0298 62.7391 56.9598 62.2791 56.7898 61.7891Z" fill="white"/>
<path d="M84.9299 72.3115C84.5199 71.4315 84.0899 70.5415 83.6399 69.6415C83.5399 69.6015 84.2699 70.9915 84.9299 72.3115Z" fill="white"/>
<path d="M44.0998 30.9006C43.6898 30.7506 43.3598 30.6706 43.0798 30.6406C42.7498 30.6406 42.3498 30.7806 42.0698 30.9006C42.4398 30.9706 42.8198 31.0706 43.1498 31.1706C43.4998 31.2606 43.6698 31.4306 43.8698 31.4906C44.2398 31.6406 44.3898 31.5606 44.0998 30.9006Z" fill="white"/>
<path d="M74.8198 89.8794C75.2798 89.7694 75.5298 89.4994 75.6198 89.1094C75.1798 89.2094 74.8698 89.4194 74.8198 89.8794Z" fill="white"/>
<path d="M39.7998 32.2783C40.0498 32.3283 40.2398 32.3183 40.4698 32.3483C40.8498 31.7783 41.2998 31.2283 42.0698 30.8983C40.9798 30.6983 39.8198 30.8583 39.7998 32.2783Z" fill="white"/>
<path d="M87.3099 33.3091C87.3899 33.2591 87.4299 33.2091 87.5199 33.1691C87.2799 33.1591 87.2699 33.2191 87.3099 33.3091Z" fill="white"/>
<path d="M104.82 15.1719C104.93 15.3519 104.93 15.6419 104.95 15.9119C105.07 15.7819 105.06 15.5519 104.82 15.1719Z" fill="white"/>
<path d="M53.5898 23.5294C53.8798 23.2194 53.5498 23.3294 53.5898 23.5294Z" fill="white"/>
<path d="M58.8398 28.3789C58.8698 28.5889 58.9398 28.8389 59.1398 29.1889C58.9498 28.8189 58.8598 28.5589 58.8398 28.3789Z" fill="white"/>
<path d="M43.25 42.8203C43.25 42.8203 43.23 42.8203 43.21 42.8303C43.6 42.9903 43.53 42.9603 43.25 42.8203Z" fill="white"/>
<path d="M54.5198 23.8888C54.2798 23.7888 54.0398 23.7287 53.8098 23.7188C53.9498 23.7888 54.1698 23.8488 54.5198 23.8888Z" fill="white"/>
<path d="M54.03 23.2288C54.19 23.2288 54.31 23.1988 54.42 23.1888C54.32 22.9188 54.18 22.7788 54.03 23.2288Z" fill="white"/>
<path d="M53.1499 23.8995C53.3299 23.7595 53.5599 23.7095 53.8099 23.7095C53.6799 23.6495 53.5999 23.5795 53.5899 23.5195C53.4999 23.5995 53.3799 23.7195 53.1499 23.8895V23.8995Z" fill="white"/>
<path d="M91.96 66.4519C92.01 66.4319 92.05 66.4219 92.12 66.4019C91.4 66.1119 91.51 66.2319 91.96 66.4519Z" fill="white"/>
<path d="M45.48 55.3086C45.43 55.3086 45.39 55.3186 45.34 55.3286C45.32 55.3386 45.29 55.3586 45.27 55.3686L45.48 55.3086Z" fill="white"/>
<path d="M47.8898 55.1194C44.6598 55.8694 44.7998 55.6294 45.2798 55.3694C42.9098 56.0094 40.5798 56.6694 38.2998 57.3494C41.6198 56.6694 44.8198 55.9194 47.8998 55.1094L47.8898 55.1194Z" fill="white"/>
<path d="M82.9599 72.7892C82.7399 72.0892 82.5499 71.3992 82.3899 70.7292C82.2099 67.7392 82.2899 68.7792 81.7799 66.0392C82.4199 69.4392 82.2499 69.5092 82.0999 69.5892C81.9399 69.6592 81.7899 69.7392 81.7099 72.7592C81.6399 72.2892 81.5799 71.8292 81.5399 71.3792C81.5899 71.4692 81.6099 71.1192 81.6599 71.1992C81.5399 69.6692 81.4799 70.7392 81.2599 71.9992C81.0599 73.2592 80.7099 74.7092 80.3799 74.0992C80.1799 73.5292 80.2299 72.6592 80.5099 72.0792C80.2599 72.4592 79.9799 72.8192 79.6699 73.1592C79.5399 72.9692 79.8799 72.0792 79.9799 72.2492C79.6999 72.2592 79.3899 72.2692 79.0799 72.2692L79.1499 72.1292C78.6999 72.8492 77.8799 73.9092 77.3499 74.2592C77.2599 73.3292 77.8499 73.8692 78.0399 73.2092L76.4499 73.8592C76.5799 73.1292 76.9999 72.5692 77.4699 72.2592C77.6999 72.0992 77.9499 72.0092 78.1699 71.9892C78.2799 71.9792 78.3899 71.9892 78.4799 72.0092C78.5899 72.0392 78.6599 72.0792 78.6699 72.1192C78.9599 71.5092 79.0599 71.0092 79.1299 70.6592C79.1999 70.3092 79.2099 70.0992 79.1699 69.9792C79.0999 69.7492 78.8499 69.8892 78.5399 70.0692C77.9099 70.4392 77.0199 70.9992 76.7599 69.0792L78.0099 68.9592C78.8399 65.9192 77.5999 66.5292 77.4399 64.2692C77.2199 65.2892 77.2999 69.6592 75.5999 70.2992C75.4899 69.7792 75.1799 69.3992 74.0999 70.0592C74.9899 68.3492 74.2099 68.4692 73.4499 68.1992L74.6899 65.9592C73.5799 66.2092 73.0399 67.3992 72.0599 68.1792C71.3299 67.5092 72.0699 65.6592 72.6499 64.0792C71.4799 63.0092 72.1099 67.3892 70.2799 66.9692C69.5999 65.5092 68.3199 66.0192 66.2599 66.6592C65.8799 65.4592 67.1299 65.3492 67.1799 64.5492L65.5299 65.9892C65.3799 65.8592 65.7299 65.3292 65.8999 65.0592C64.9399 65.4492 64.6599 67.2992 63.4099 67.4292C61.8499 69.7892 63.4099 62.7792 60.7799 65.0092C60.8299 64.2192 61.6499 63.6892 62.0199 62.7692C59.4599 63.7992 59.9599 63.4092 57.3499 65.2392L57.0299 63.1692C56.9499 65.2992 54.8599 66.7592 53.0799 67.9392C52.9399 68.9092 52.8099 69.7592 52.7899 70.1892L50.6999 70.6492C50.7199 70.1892 51.2699 69.4792 52.0099 68.6592C51.8099 68.7992 51.6199 68.9292 51.4599 69.0592C51.3799 67.9492 52.3399 66.7792 53.3699 65.7092C53.3099 66.2492 53.2399 66.8192 53.1599 67.3792C54.2399 66.1892 55.3799 64.8392 55.9999 63.4792C55.7699 63.6892 55.4699 63.8192 55.1999 63.8392C55.4899 63.5092 55.7199 63.2092 55.7999 62.9592C55.8799 62.6992 55.4599 63.1192 54.9199 63.5692L55.9199 60.8692L55.3099 61.8292L54.2399 59.2592C53.5699 59.7192 52.8699 60.2592 52.1499 60.7992C51.4999 61.3792 50.9199 62.0192 50.2099 62.5292C48.8399 63.5792 47.2499 64.2692 45.7799 64.1592C47.7199 62.8192 48.2199 61.5792 49.9799 59.7092C49.2499 60.8092 49.7599 60.7592 50.3899 60.4792C51.0299 60.2092 51.7699 59.6892 51.9299 60.0792C51.7399 59.6692 52.4699 58.7192 52.7399 58.3992C52.0299 58.9292 51.2199 59.3992 50.2999 59.8092C51.6499 58.2292 51.0699 58.4992 51.4399 57.7392C48.8099 60.8792 48.6399 59.2792 47.0599 59.8392C48.1999 58.9192 49.4999 58.0492 49.7399 58.5392C50.6699 57.3192 49.5899 58.0792 48.2799 58.7892C47.0099 59.5192 45.5299 60.1892 46.3599 59.1892C46.5499 59.2492 46.4499 59.4292 47.1499 59.0292C46.4199 59.3192 46.0099 59.1792 45.9899 58.8992C45.9699 58.6192 46.3599 58.2292 47.0599 57.9392L47.2299 57.9992C46.9999 57.6092 46.3699 57.2692 45.1699 57.1792C43.9799 57.0992 42.1299 57.2092 39.7299 57.8692C40.3199 57.6892 45.2399 56.2392 46.3199 55.9192C40.7999 57.3292 34.5799 58.3792 27.6499 59.0492C29.9999 58.6292 33.5099 57.6892 36.9899 56.8992C40.4599 56.1092 43.8199 55.4392 45.3499 55.3092C45.7599 55.0592 46.3499 54.8092 44.3399 54.9292C43.7699 55.0992 38.1699 56.4592 37.4899 56.4092C39.6599 55.7092 40.2799 55.5492 40.7499 55.3692C41.2399 55.1992 41.5799 55.0292 43.5999 54.5192C43.1699 54.6492 41.0099 54.9792 38.8999 55.2392C36.7899 55.4992 34.6999 55.6492 34.5699 55.4992C35.8199 55.3792 42.3299 54.4692 43.2599 54.4192C40.4399 54.6292 37.4799 54.7692 34.3599 54.8292C36.1199 54.8292 41.2399 54.1392 43.4399 53.8492C41.8899 54.0292 42.9699 53.5092 41.9399 53.4792C41.3699 53.5692 40.8099 53.6692 40.2699 53.7792C40.5399 53.4192 34.8599 53.5892 30.3699 53.4392C28.4699 53.3492 27.2099 53.1592 27.9299 52.8192C29.5099 52.9492 38.8499 52.8992 40.3799 52.6392C38.2599 52.5792 33.1899 52.3992 28.7399 51.9392C24.2499 51.4892 20.4299 50.7192 19.9299 49.9892L22.5599 49.9392C22.1899 49.5792 21.8499 49.1992 21.5599 48.7892C23.8899 49.4092 27.5299 50.3492 31.4399 51.0392C35.3199 51.7492 39.4799 52.1892 41.8899 52.3892C44.1399 52.2492 44.8699 52.4092 45.0299 52.1692C47.3599 52.1992 48.2399 52.4192 48.3199 52.4592C49.0199 52.3492 49.6699 52.2592 50.2999 52.1992C45.6099 51.8892 46.3199 51.4492 42.7099 51.0192C43.7699 51.4592 44.9799 51.8192 46.3299 52.0892C43.9399 51.9692 40.6999 51.6892 38.4999 51.2592C36.2699 50.8392 35.0999 50.2392 36.1299 49.8892C37.1399 49.9092 38.9399 50.2192 40.7099 50.5192C42.4799 50.8192 44.2299 51.1092 44.9599 51.1992C43.5499 50.9692 42.9899 50.3192 44.0499 50.4492C44.6499 50.6492 45.2599 50.8392 45.8999 51.0092C46.8499 51.0192 45.6499 50.7092 44.8399 50.3892C44.0099 50.0792 43.5799 49.7492 45.6099 50.0192C45.8199 49.9892 47.1299 50.2192 48.0699 50.3992C49.0199 50.5792 49.6299 50.7092 48.6099 50.3992C44.4499 49.3192 31.3799 46.1292 28.8899 44.9492C29.1099 44.9392 30.7099 44.8292 32.4599 44.8192C34.2099 44.8092 36.0799 44.9192 37.1799 45.1392C38.8899 45.5092 40.2999 46.3392 41.7699 47.0692C43.2199 47.8192 44.7199 48.4892 46.0999 48.8592C45.2299 48.5292 44.3599 47.9892 44.1199 47.7992C45.0899 47.9492 46.6699 48.9192 46.7499 48.4792C43.7899 47.0892 48.0399 47.9692 44.4399 47.1792C44.1699 46.4292 45.6399 47.1092 46.1299 46.6792C45.1599 46.2292 43.8099 45.2992 42.8199 44.2892C41.8199 43.2892 41.1999 42.1992 41.3099 41.6692C41.8699 42.1392 42.8499 42.6092 43.2799 42.8292C45.1299 41.9992 46.8199 42.4292 48.1499 41.6492C48.6899 42.0992 49.7199 42.4092 50.1299 43.5292C50.0299 43.0292 49.6299 42.1892 50.0599 41.8492C51.1199 42.5792 50.9099 42.8192 50.6999 43.1192C50.4999 43.4092 50.4599 43.6892 51.4299 44.7592C51.2399 44.4092 51.0799 44.1192 51.0599 43.7792C51.0299 43.4492 51.0699 43.1292 51.1399 42.8092C51.2799 42.1792 51.5299 41.5592 51.6099 40.9292C50.8699 39.9392 50.4299 40.0792 50.1399 40.6092C49.9999 40.8792 49.8999 41.2492 49.8199 41.6292C49.7399 42.0092 49.7699 42.3592 49.7699 42.6492C47.8399 39.8692 47.2799 36.0792 48.0399 33.7992C48.8699 32.3192 49.7199 35.3292 49.6899 34.7892C52.3699 33.8592 48.6699 28.5192 51.8999 29.4092C53.7899 30.7792 54.1499 33.0492 55.1199 34.2692C54.5099 35.5892 52.8299 34.0592 52.1799 34.5592L53.5699 34.9092C53.6099 35.7192 53.1999 36.5992 52.5099 36.2992C54.1599 37.5492 56.7199 34.1892 59.4799 34.6092C59.4299 33.7992 59.6099 32.8192 58.8999 32.2392L58.4699 32.8492C57.0399 31.6892 58.3199 30.1392 57.1699 29.8892C57.3199 28.3792 57.1999 26.2092 58.7999 26.3792L60.2699 28.3492C59.8799 27.7492 58.7999 27.5292 58.8799 28.3492C58.7699 27.1392 62.2799 30.1792 61.1199 27.1192L59.4699 26.1292C59.6099 24.5992 59.2299 21.7892 60.6099 21.8692C58.9199 20.0592 60.5299 22.2392 58.3699 20.2292C60.7899 22.8892 55.8099 21.6092 58.6799 24.1892C56.2699 21.7992 56.7299 23.7392 54.3599 21.8992C54.8099 22.5792 55.4899 23.0292 54.4699 23.1792C54.5599 23.3992 54.6199 23.7092 54.6599 23.8992C54.6199 23.8992 54.6099 23.8992 54.5699 23.8792C54.5999 23.8992 54.6299 23.9192 54.6599 23.9292C54.6899 24.0592 54.6999 24.0792 54.6899 23.9492C55.0699 24.1392 55.4499 24.4092 55.7399 24.7492C56.2999 26.5792 54.9699 27.3192 55.0299 28.4092C54.3499 28.3692 54.7499 27.4892 54.0399 26.9092L54.1299 28.5392C53.1399 27.0392 51.2999 26.7592 51.8999 25.1692L50.8299 25.7192C49.7099 25.2192 48.6699 25.3792 48.5399 26.3392C47.8599 26.2992 48.3499 28.7792 48.0399 27.3192L47.0099 29.2492L46.7599 28.8792C45.9099 29.2592 45.4699 30.3892 44.8199 31.2192C44.6599 31.4292 44.4799 31.6092 44.2799 31.7592C44.0699 31.9092 43.8899 31.9992 43.4599 32.1692C42.6899 32.4492 41.7599 32.5292 40.5099 32.3392C39.8899 33.2392 39.4199 34.1792 37.5999 34.6792L36.1399 33.7492C35.7599 34.2992 34.5799 34.5592 33.5399 34.8892C32.5099 35.2192 31.6499 35.5992 32.1299 36.2492C29.5899 35.3392 27.7499 36.1892 26.3099 37.2892C24.8499 38.4092 23.8599 39.7392 22.3299 40.2392L24.6999 41.1792C23.1499 41.9792 22.4899 43.0592 21.9499 44.3292L24.5199 44.8692C24.8699 45.5192 23.6199 45.8992 21.9499 46.3492C20.2899 46.7892 18.1899 47.3092 17.2199 47.9992C16.2599 47.7792 17.1299 47.4592 18.1799 47.3092C13.6399 47.6792 13.2099 48.8092 13.3699 49.7292C13.4699 50.6892 14.1599 51.4592 10.1799 52.1292C10.8299 52.4992 9.99994 52.7392 8.68994 53.0092C8.72994 52.9792 8.71994 52.9492 8.64994 52.9192C8.54994 52.9592 8.44994 53.0092 8.35994 53.0692C7.48994 53.2392 6.49994 53.4092 5.61994 53.6092C6.74994 53.4292 7.69994 53.2792 8.23994 53.1492C7.88994 53.3992 7.63994 53.7592 7.76994 54.0992C7.92994 54.1292 8.09994 54.1692 8.26994 54.2092L4.68994 54.4992C4.79994 54.5292 4.83994 54.5592 4.96994 54.5892C4.29994 55.0392 7.34994 54.8092 9.88994 54.4992C10.8599 54.6492 11.9199 54.7792 13.0599 54.8492C10.2699 55.1392 11.2599 55.3592 12.1699 55.5792C13.0999 55.7992 13.9399 56.0092 11.2499 56.4692C14.7099 56.4692 16.9799 58.0992 23.0099 57.4192C22.2799 57.5392 22.0999 57.6792 21.7299 57.5192C21.7299 57.9592 21.8099 58.4392 23.9499 58.4792L20.3399 59.3492C22.6199 59.3092 24.8199 59.2192 26.9399 59.0992C25.5099 60.0292 24.7499 60.6092 20.9299 60.7392C24.2999 60.8692 25.0999 60.9792 25.8999 61.0992C26.6799 61.1992 27.4599 61.3092 30.2499 61.1592L28.0599 61.7992C28.4399 61.9592 29.5799 61.9492 30.4399 61.9792C31.2999 62.0092 31.8899 62.0892 31.2699 62.4992C30.1299 63.5992 31.9799 64.6892 34.1199 65.8992C36.2899 67.1292 38.6699 68.4292 39.7899 70.5992C41.0399 68.6192 41.1299 69.2592 41.2699 70.0692C41.4099 70.8792 41.6999 71.9192 42.8699 70.4892C42.4199 71.4992 42.6799 72.3392 41.3899 72.7392C44.1699 72.9792 44.1999 76.1892 46.3999 73.9092C46.0499 74.9792 45.3499 75.1792 45.1799 75.8392C45.4099 75.6892 46.0799 75.2292 45.9199 75.8892C45.7599 76.5492 45.2799 76.5992 44.8299 76.9092C46.3699 77.5092 48.0999 74.5792 49.6799 71.8092C49.7199 73.5292 50.1799 73.5392 51.6899 71.9592C51.4599 73.0192 51.3799 74.2092 50.2999 74.0692C50.7399 74.4692 52.6899 77.0492 53.9299 74.8192C53.7899 75.4792 54.5499 75.3592 54.8199 75.1692C55.8899 75.9092 55.8799 76.1592 57.1099 76.5292L56.9899 75.9992C58.8699 73.4992 58.2399 75.8792 59.3199 76.0192L59.1499 76.2792C60.1799 79.3392 60.5399 75.8092 61.3999 79.1292L62.1799 77.3692C64.2899 73.8192 62.8599 80.4692 64.7799 79.6992L64.8599 78.4992C66.1599 77.5892 64.0599 84.4192 64.4699 85.2192C64.4399 85.6092 63.9799 85.6092 63.6599 85.7392C64.2299 88.7892 65.0499 83.6292 66.5899 83.7792C66.1899 85.0992 64.6899 86.6792 65.4199 87.3492C65.3399 88.5392 69.9399 84.7492 69.8999 87.6592C70.1299 86.5992 70.3599 85.5392 71.3099 85.1592C71.4499 85.1792 71.5399 85.2592 71.6599 85.4092C71.8099 85.5692 71.9499 85.7892 72.0899 86.0292C72.3699 86.5192 72.6499 87.1192 72.9799 87.6392C73.6399 88.6892 74.5399 89.4492 75.5899 88.1392C75.6799 88.5092 75.6699 88.8192 75.6099 89.0792C76.8799 88.7892 79.2299 89.3892 79.9199 87.7292C80.0199 91.5192 81.8099 91.5492 83.1199 91.2592C84.4699 90.9892 85.4299 90.4292 86.0199 94.1892L89.0799 95.4192L89.1999 96.1892C91.4099 97.8092 91.5699 96.2292 91.5099 94.5392C92.1299 95.3392 92.0999 95.9592 92.2099 96.3792C95.6299 99.5692 96.1699 99.5592 96.2099 96.1292L97.8899 99.2492C97.7999 98.6292 99.0099 99.8792 100.6 101.359C102.17 102.829 104.18 104.559 105.12 104.559C105.01 103.979 104.83 103.299 104.57 102.509C104.8 102.909 105.18 103.589 105.46 104.309C104.88 102.419 104.93 101.529 105.22 100.919C105.51 100.319 106.05 100.009 106.43 99.4992C107.19 98.4992 107.34 96.6992 103.73 91.8192C103.14 90.3492 102.54 88.9392 101.95 87.5892C101.67 88.6692 100.89 87.6392 100.02 86.3992C99.1599 85.1492 98.2099 83.7192 97.6199 83.5092C97.4099 82.8592 97.9499 82.8992 98.5999 83.2192C99.2399 83.5492 99.9899 84.1892 100.17 84.9892L99.8099 84.7992C101.69 87.0092 102.03 86.5192 102.21 85.7692C102.39 85.0292 102.43 84.0792 103.71 85.2292C103.62 82.2192 104.09 79.6892 104.61 76.9392C105.13 74.2192 105.69 71.2892 105.77 68.2692C104.79 68.4092 103.82 68.5192 102.84 68.5992L103.01 66.7592C103.69 66.2992 105.3 66.0992 105.18 67.5792C106.01 67.2492 105.66 66.5692 105.03 66.0592C104.4 65.6492 103.47 65.4092 103.16 65.3792C104.34 63.4892 106.57 66.1192 106.64 65.5392L106.42 64.7492L106.08 64.9292C104.88 64.2892 103.62 64.2292 103.76 63.0692C104.35 62.3292 105.57 62.6892 105.68 62.3992C105.89 62.3992 105.99 62.2992 105.77 61.9592L106.02 60.2492L103.71 60.9292C102.57 60.1692 103.83 59.3192 101.21 60.1092C105.25 58.9492 102.66 53.7392 103.91 53.0292C102.23 51.9692 102.26 50.9192 102.46 49.6292C101.98 49.9492 99.3799 50.1492 99.6999 49.0292C105.06 49.4392 102.03 46.9792 105.88 46.0792C103.32 46.8892 105.25 42.8992 101.62 44.1692C102.06 43.2392 103.63 44.1092 104.89 43.4092C102.81 41.1892 106.24 38.5092 105.54 35.7692C104.83 35.7292 103.76 36.1892 102.71 35.5992L106.23 34.1492C105.89 33.6092 102.17 33.6492 104.61 32.6592C104.02 32.7992 103.13 33.0092 102.9 32.6492C106.33 27.2692 100.09 21.6592 106.53 16.1892C105.16 16.9292 105.03 16.4392 104.98 15.8692C104.65 16.2392 103.24 15.8692 102.29 15.9292L104.94 13.6392C102.29 13.2192 104.76 11.1892 102.23 10.9492L102.69 11.6692C99.6999 10.7092 96.0499 13.0192 92.2199 12.8792C95.6199 13.9592 87.1899 15.7192 92.0499 17.4892C91.2699 17.8792 90.8099 17.1592 89.9299 17.3692C91.5699 17.8192 91.9099 18.3592 91.1799 19.3592L90.7699 19.2492C91.1699 22.0692 89.5499 23.2792 88.4699 26.4492L90.3599 26.2192C90.1099 26.8992 89.5099 27.0392 89.0399 27.3592C91.9099 28.1392 89.1999 25.4492 92.3699 26.1592C88.5099 27.0592 92.3099 30.9592 87.9299 31.5692C87.9099 32.6192 90.1199 31.2592 90.0999 32.3092L88.9099 32.5892L90.4399 32.8492C90.1899 33.5392 88.6999 33.8792 87.6999 33.9092C87.8199 33.7392 87.4199 33.4392 87.3299 33.2592C85.9299 34.1492 87.8099 35.7692 87.3499 36.0792L88.0799 35.0692C89.1899 37.9292 87.6299 41.4192 90.0399 44.1792L90.9299 43.9692C92.5799 46.0792 89.9499 45.6592 90.7099 47.9692L90.4999 47.8892C91.3899 48.3492 91.8399 48.9692 91.7399 49.6092C90.6899 49.0292 89.7099 50.7092 88.5499 49.9392C90.3299 52.2292 89.9499 51.0692 93.2699 52.5792L91.7799 52.9292C93.1199 53.4392 93.8299 53.4892 94.2199 54.6392C92.9499 53.6892 91.9599 55.3792 90.2799 54.3192C87.0299 56.7492 93.5499 57.9192 88.8099 59.0392C92.9199 60.1492 91.0899 56.9392 91.9699 57.5592C93.3099 57.0392 95.0399 58.4792 94.6299 59.2392C94.5399 60.0192 89.3699 60.5592 89.4499 62.5092C89.4699 62.3192 89.1599 62.2992 89.1799 62.1092C88.1299 62.8392 90.5999 63.5392 88.8999 64.4292C91.3899 64.9292 88.7599 65.5892 91.9199 65.7392L91.1899 63.9492C92.0199 64.9292 95.7199 66.0592 93.9299 67.2392C93.2899 67.0592 92.4499 66.6392 91.9799 66.3992C91.0499 66.6492 92.5999 67.0792 91.6399 67.3092C88.4699 66.7192 90.9499 66.3192 88.5399 64.8092C87.8699 65.0692 88.4399 65.5892 88.7599 65.9692C89.0699 66.1692 89.1199 66.2592 87.4099 66.1092C89.5899 66.3092 89.4499 66.6092 89.1899 66.8292C88.9199 67.0792 88.5299 67.2092 90.1999 67.9292L88.2999 67.4492C88.5999 67.5992 89.4899 68.0292 89.4499 68.2192C88.6299 67.8692 87.8099 67.5492 86.9899 67.2692C88.0399 67.7192 87.5799 67.8392 86.9999 67.7992C86.4199 67.7792 85.7199 67.5992 86.2899 67.9992C86.2599 67.6892 86.8299 67.8592 87.5899 68.1492C88.3399 68.4292 89.2799 68.8992 89.9699 68.9092C91.2399 70.1192 89.9999 69.8892 88.5499 69.3292C87.0999 68.8192 85.4599 68.0092 85.9099 68.6492C85.7799 68.5092 86.0599 68.5992 86.4899 68.7792C86.9199 68.9592 87.4899 69.2292 87.9299 69.6192C87.5399 69.6192 86.8099 69.4092 85.8099 68.7992C86.0099 69.1892 86.4999 69.5592 87.0799 69.9192C87.6699 70.2892 88.3499 70.6092 88.9299 71.2192C87.7699 70.5192 88.0099 70.7592 88.6299 71.3692C89.2499 71.9692 90.2499 72.9292 90.6199 73.4892L88.6899 71.8492C87.4499 71.6992 92.7099 75.8092 91.2099 75.5892C90.3199 74.5092 89.4299 73.4692 88.5399 72.4892C88.7699 72.8592 88.9999 73.2592 89.2299 73.6592L87.0299 71.3192C88.6599 73.3992 88.2399 73.2392 87.6199 72.9092C88.9799 74.3992 91.1199 77.1092 91.1799 77.8392C90.0299 76.7692 89.3499 75.3192 89.6199 76.3892C88.4099 74.5992 86.8999 72.5892 88.6699 74.5592C88.0399 73.7492 87.4599 72.9292 86.8399 72.1492C85.5199 70.7392 86.5399 72.2992 86.5599 72.5292C86.6299 72.5692 86.7399 72.6392 87.0099 72.9592C87.8999 74.3792 88.7899 75.9192 89.6899 77.5792C88.9699 76.6692 88.3799 75.6692 87.8099 74.7392C88.0199 75.1992 88.9099 76.6492 89.0699 77.1992C87.4999 74.7192 85.8799 72.2192 85.1399 70.9292C85.7199 71.9292 86.2999 72.9992 86.8799 74.1392C86.3599 73.3492 85.5599 72.1792 84.9399 71.1892C84.7399 70.8492 84.6699 70.7492 84.4699 70.4192C84.4499 70.3892 84.4499 70.3792 84.4199 70.3392C84.4199 70.3392 84.4199 70.3392 84.4199 70.3292C83.8999 69.5592 84.5699 70.7692 85.0599 71.8392C85.5699 72.9192 85.8799 73.8492 85.2199 72.8192C85.4299 73.2792 85.6199 73.6992 85.6899 73.9892C85.3499 73.6092 84.7899 72.6692 84.4699 72.2192C84.1399 71.7592 84.0699 71.7792 84.3799 73.1592C83.8199 71.8092 83.3099 70.4792 82.8499 69.1792C82.9099 69.5692 83.3099 70.7792 83.7799 72.0892C84.2399 73.3892 84.7699 74.7892 84.5799 75.2792C84.3299 76.1592 83.4899 71.9992 83.0799 70.8992C83.2499 71.7892 83.4399 73.0992 83.3899 73.7692C83.3499 74.4392 83.0599 74.4592 82.6599 72.9492C82.7199 72.3792 82.8999 72.9492 82.9899 72.7592L82.9599 72.7892ZM75.6099 70.3292C76.0599 70.1092 77.1699 69.2792 76.8299 70.3892C75.4999 72.1892 75.7599 71.1292 75.6099 70.3292ZM52.7799 63.5992C53.2699 63.1392 53.4299 63.5792 53.4299 64.3992C53.1099 64.4092 52.8599 64.1992 52.7799 63.5992ZM50.5799 27.1792C50.5799 27.1792 50.5799 27.2392 50.5999 27.2792C49.6399 26.9792 49.9999 27.1092 50.5799 27.1792ZM52.1999 27.1892C52.1799 26.8892 52.0299 26.6592 51.8399 26.4592C52.0099 26.9292 51.7599 27.1192 51.3899 27.1792C51.7299 27.5592 52.0699 27.7692 52.1999 27.1792V27.1892ZM104.95 62.3192L104.45 62.5892C103.89 61.9792 104.4 62.1492 104.95 62.3192Z" fill="white"/>
<path d="M56.35 62.5C56.27 62.83 56.13 63.16 55.98 63.49C56.23 63.26 56.41 62.93 56.35 62.5Z" fill="white"/>
<path d="M85.1599 72.7986L85.1899 72.8386C85.0899 72.6286 85.0099 72.4686 84.9299 72.3086L85.1599 72.7986Z" fill="white"/>
<path d="M47.4898 49.1498C47.0498 49.0898 46.5598 48.9798 46.0698 48.8398C46.6298 49.0498 47.1598 49.1998 47.4898 49.1498Z" fill="white"/>
<path d="M56.75 20.6016L56.25 21.4916C56.57 21.1916 56.91 21.4716 57.26 21.6216C57.01 21.2416 56.53 20.7716 56.75 20.6016Z" fill="white"/>
<path d="M69.48 26.8597C69.47 26.5897 69.7 26.6997 69.69 26.4297L69.2 25.6797C68.76 26.0097 68.8 26.8297 69.49 26.8597H69.48Z" fill="white"/>
<path d="M60.76 25.6712C61.66 27.0212 61.85 26.2712 62.22 25.6912C62.19 25.7112 62.17 25.7412 62.13 25.7512C61.11 23.7112 60.94 24.7012 60.76 25.6812V25.6712Z" fill="white"/>
<path d="M62.3198 25.5705C62.4398 25.4105 62.5898 25.2705 62.7898 25.2405C62.3798 24.4205 62.4898 25.2005 62.3198 25.5705Z" fill="white"/>
<path d="M53.1298 25.3619C53.5998 25.5719 52.2098 23.4919 52.6998 23.9719C51.9098 22.0319 52.3198 27.1219 53.1298 25.3619Z" fill="white"/>
<path d="M63.96 29.9906L62.73 28.3906L63.27 29.9506L63.96 29.9906Z" fill="white"/>
<path d="M59.0198 31.25L60.1498 31.22C59.9598 30.94 59.9698 30.71 60.0198 30.5C59.4598 30.75 58.6898 30.76 59.0098 31.25H59.0198Z" fill="white"/>
<path d="M60.03 30.5008C60.32 30.3708 60.56 30.1708 60.54 29.8008C60.4 29.9108 60.12 30.1508 60.03 30.5008Z" fill="white"/>
<path d="M63.11 31.1983L62.65 30.9883L61.98 31.2283L63.11 31.1983Z" fill="white"/>
<path d="M49.7299 36.4219L49.0999 37.4719C49.3599 38.1119 49.8299 38.3219 50.0299 37.8819C49.9999 37.3419 50.2099 36.9019 49.7199 36.4219H49.7299Z" fill="white"/>
<path d="M55.3599 39.4311C54.8999 39.2211 54.6499 38.8511 54.1699 38.3711L55.4299 40.5111L55.3699 39.4311H55.3599Z" fill="white"/>
<path d="M52.97 41.5514C53.23 42.2014 52.65 44.0514 53.74 43.2114C53.48 42.5714 54.11 41.5214 52.97 41.5514Z" fill="white"/>
<path d="M38.2298 46.7909L38.4098 46.6409L33.3098 44.9609C34.9298 45.5809 36.5698 46.1909 38.2298 46.7809V46.7909Z" fill="white"/>
<path d="M46.96 52.981C47.11 52.961 47.19 52.941 47.21 52.931C47.85 52.801 42.07 53.041 44.63 52.791C42.85 52.741 42.31 53.031 40.75 53.001C41.12 53.041 41.43 53.081 41.68 53.101C42.61 53.171 43.08 53.161 46.96 52.981Z" fill="white"/>
<path d="M40.75 53.0019C40.43 52.9719 40.08 52.9519 39.7 52.9219C40.1 52.9719 40.44 52.9919 40.75 53.0019Z" fill="white"/>
<path d="M107.01 12.1698L107.86 11.3398L106.49 11.8698L107.01 12.1698Z" fill="white"/>
<path d="M103.99 10.5902L106.59 10.4002L104.24 9.91016C104.36 10.1002 104.58 10.4602 103.99 10.6002V10.5902Z" fill="white"/>
<path d="M76.01 64.6389L75.66 65.1589C75.46 65.8189 75.61 65.9489 75.9 66.2189L76.01 64.6289V64.6389Z" fill="white"/>
<path d="M81.26 69.5917L81.23 69.5117C81.12 70.3417 81.03 71.1717 80.96 72.0217L81.26 69.5917Z" fill="white"/>
<path d="M81.93 66.5596C81.89 66.4296 82.06 67.1096 82 66.9596C81.85 66.4096 83.04 70.4496 81.93 66.5596Z" fill="white"/>
<path d="M173.24 41.9902C173.36 42.1402 173.31 40.4602 173.33 40.1602C173.14 40.5302 173.24 42.4302 173.24 41.9902Z" fill="white"/>
<path d="M171.34 45.7994L171.37 45.1094L171.09 46.7894L171.34 45.7994Z" fill="white"/>
<path d="M169.56 45.768C169.73 48.628 170.21 45.308 170.52 46.318L170.57 46.968L170.71 44.668C170.32 45.028 169.82 46.558 169.55 45.758L169.56 45.768Z" fill="white"/>
<path d="M168.61 39.5898C168.67 40.6998 168.4 40.5398 168.83 39.9398C168.81 39.8198 168.8 39.7498 168.79 39.6598C168.75 39.6798 168.7 39.6698 168.61 39.5998V39.5898Z" fill="white"/>
<path d="M168.79 39.6583C168.98 39.5783 168.67 38.7283 168.79 39.6583Z" fill="white"/>
<path d="M167.92 40.2895L168.17 39.2995C168.12 38.6395 167.9 38.4995 167.98 38.0195C167.73 38.5595 167.78 39.2195 167.92 40.2995V40.2895Z" fill="white"/>
<path d="M167.69 42.3789L167.82 41.9589C167.8 41.6789 167.76 41.5889 167.69 42.3789Z" fill="white"/>
<path d="M168.09 41.0703L167.82 41.9603C167.86 42.4203 167.86 43.3503 167.94 41.6403C167.92 42.4803 167.97 41.6703 168.09 41.0703Z" fill="white"/>
<path d="M168.24 41.5094C168.38 42.1294 168.56 42.5194 168.31 43.5094C168.78 43.1194 168.71 41.1094 168.24 41.5094Z" fill="white"/>
<path d="M169.47 48.7176L169.66 49.5576L169.82 48.5976C169.74 49.0676 169.46 47.8276 169.47 48.7176Z" fill="white"/>
<path d="M166.39 38.8086C166.37 39.4186 166.47 40.4286 166.49 41.2086L166.67 40.5086C166.58 40.0886 166.4 39.7086 166.39 38.8086Z" fill="white"/>
<path d="M166.49 41.2109L166.22 42.2509C166.46 42.3709 166.51 41.8809 166.49 41.2109Z" fill="white"/>
<path d="M167.65 45.5494L168.09 43.3594L167.56 45.5794L167.65 45.5494Z" fill="white"/>
<path d="M165.34 38.7381L165.5 37.3281L165.22 39.4581L165.34 38.7381Z" fill="white"/>
<path d="M164.65 38.9791C164.76 37.8091 164.49 37.0091 164.61 36.2891C164.42 36.4991 164.26 37.4991 164.12 38.3991C164.27 37.8991 164.44 38.0291 164.65 38.9791Z" fill="white"/>
<path d="M163.88 39.7084C163.96 39.4284 164.04 38.9284 164.12 38.3984C164.04 38.6684 163.96 39.0584 163.88 39.7084Z" fill="white"/>
<path d="M165.75 41.9487C165.73 41.5787 165.69 40.6188 165.54 40.2188L165.65 41.9287C165.65 41.9287 165.72 41.9487 165.76 41.9587L165.75 41.9487Z" fill="white"/>
<path d="M165.65 41.9781V41.9281C165.53 41.8881 165.45 41.8481 165.41 41.8281C165.44 41.8381 165.51 41.8881 165.65 41.9781Z" fill="white"/>
<path d="M165.78 41.9609C165.78 41.9609 165.76 41.9609 165.75 41.9609C165.76 42.1309 165.77 42.1809 165.78 41.9609Z" fill="white"/>
<path d="M166.93 44C166.77 44.96 166.44 45.98 166.76 47.44C166.87 46.27 166.69 45.44 166.93 44Z" fill="white"/>
<path d="M165.91 44.1002L166.2 44.4902C166.2 44.0402 166.14 43.3802 166.22 42.9102L165.91 44.1002Z" fill="white"/>
<path d="M165.77 44.6392L165.91 44.0992L165.8 43.9492L165.77 44.6392Z" fill="white"/>
<path d="M164.38 41.3074C164.25 42.0574 164.12 42.1174 163.96 42.2374C164.13 42.5774 164.3 42.7574 164.46 42.7474C164.48 42.2074 164.55 41.2474 164.38 41.3074Z" fill="white"/>
<path d="M164.99 41.7891C164.99 41.7891 164.97 41.8491 164.96 41.8891C164.98 42.0391 164.99 42.0791 164.99 41.7891Z" fill="white"/>
<path d="M162.44 42.2305C162.44 42.3205 162.46 42.4405 162.46 42.5405C162.46 42.4405 162.46 42.3405 162.46 42.2405H162.43L162.44 42.2305Z" fill="white"/>
<path d="M164.49 43.0709C164.61 43.4009 164.69 42.9809 164.76 42.4609C164.67 42.6309 164.57 42.7409 164.46 42.7509C164.45 42.9909 164.45 43.1509 164.49 43.0709Z" fill="white"/>
<path d="M163.46 40.5098C163.52 40.8698 163.6 41.1698 163.68 41.4498C163.62 40.9098 163.49 40.0698 163.46 40.5098Z" fill="white"/>
<path d="M164.92 41.4102C164.92 41.4102 164.93 41.3502 164.94 41.3302C164.9 40.9702 164.9 41.1402 164.92 41.4102Z" fill="white"/>
<path d="M164.92 41.4102C164.86 41.6602 164.81 42.0802 164.75 42.4602C164.83 42.3202 164.9 42.1402 164.96 41.8902C164.94 41.7702 164.93 41.5802 164.92 41.4202V41.4102Z" fill="white"/>
<path d="M161.98 53.1991C162 51.6191 162.33 50.1491 162.61 51.8491C162.89 50.6591 162.71 45.4491 162.46 42.5391C162.46 43.2291 162.46 43.8691 162.17 44.8091C162.27 45.6691 162.81 46.8291 162.56 48.2691C162.18 49.0791 162.25 47.7091 162.06 46.8691C162.22 48.8391 161.58 49.7391 161.66 52.6391L161.99 51.6191C161.99 52.0691 161.88 52.7891 161.97 53.1991H161.98Z" fill="white"/>
<path d="M163.01 42.6977L163.13 42.4977C163 42.2177 162.9 41.5877 162.72 40.3477C162.52 41.1277 162.48 41.7077 162.47 42.2377L163.05 42.4577L163.01 42.6977Z" fill="white"/>
<path d="M163.65 42.4975C163.56 44.2175 163.27 44.9575 163.45 46.8175C163.8 46.6975 163.69 45.3775 163.9 44.6275C163.34 45.0575 164.06 43.6675 163.66 42.6875C163.77 42.3975 163.87 42.3075 163.96 42.2275C163.86 42.0175 163.76 41.7575 163.67 41.4375C163.67 41.4775 163.67 41.5075 163.68 41.5475C163.68 41.5475 163.68 41.5575 163.68 41.5675C163.7 41.7875 163.71 41.9175 163.68 41.7975C163.68 41.8175 163.68 41.8275 163.67 41.8375C163.67 42.0775 163.66 42.2875 163.64 42.4875C163.48 42.1275 163.61 42.0475 163.67 41.8375C163.67 41.7475 163.67 41.6675 163.67 41.5775C163.67 41.5775 163.67 41.5675 163.67 41.5575L163.11 42.4975C163.23 42.7375 163.38 42.6875 163.64 42.4975H163.65Z" fill="white"/>
<path d="M166.46 51.1383C166.44 50.9883 166.44 50.8583 166.44 50.7383C166.4 50.9483 166.39 51.0883 166.46 51.1383Z" fill="white"/>
<path d="M166.23 50.098C166.27 49.858 166.3 49.168 166.44 49.348C166.55 49.868 166.44 50.178 166.44 50.738C166.52 50.278 166.72 49.498 166.47 48.658L166.43 48.898C166.2 48.308 165.92 46.158 165.95 45.918C166.02 47.468 166.07 48.578 166.22 50.098H166.23Z" fill="white"/>
<path d="M164.93 46.7405L164.46 47.5805L164.7 49.0705V48.1705C164.95 48.5205 164.9 47.4205 164.93 46.7305V46.7405Z" fill="white"/>
<path d="M162.38 41.3708L162.45 39.5508L162.18 42.1208L162.38 41.3708Z" fill="white"/>
<path d="M161.78 41.5878L161.8 40.0078L161.64 40.9578L161.78 41.5878Z" fill="white"/>
<path d="M127.63 61.2305L127.49 61.6805C127.55 61.5405 127.6 61.3905 127.63 61.2305Z" fill="white"/>
<path d="M128.62 61.3386L128.64 60.5586C128.59 60.9886 128.58 61.3086 128.62 61.3386Z" fill="white"/>
<path d="M146.92 41.7677C146.72 40.2877 146.5 37.9977 146.52 39.7777L146.58 41.5077C146.72 41.1977 146.83 41.3877 146.92 41.7677Z" fill="white"/>
<path d="M136.74 52.13C136.76 52.3 136.78 52.48 136.8 52.66C136.85 52.07 136.89 51.52 136.93 51C136.87 51.36 136.81 51.73 136.74 52.13Z" fill="white"/>
<path d="M136.6 59.3075L136.34 58.1875C136.4 58.5775 136.48 58.9575 136.6 59.3075Z" fill="white"/>
<path d="M122.22 63.0703L122.06 64.8403C122.31 64.8403 122.2 63.9403 122.22 63.0703Z" fill="white"/>
<path d="M155.58 42.2297C155.41 41.5497 155.27 41.2697 155.15 41.1797C155.36 42.1797 155.52 43.6697 155.58 42.2297Z" fill="white"/>
<path d="M128.02 42.8086C127.94 43.1186 127.9 43.4786 127.9 43.8586C127.99 43.5586 128.04 43.2286 128.02 42.8086Z" fill="white"/>
<path d="M154.65 41.1906C154.68 41.3606 154.71 41.4506 154.74 41.6006C154.87 41.3106 154.99 41.0806 155.15 41.1906C155 40.4506 154.82 39.9906 154.65 41.1906Z" fill="white"/>
<path d="M102.6 61.628C102.59 61.548 102.57 61.508 102.56 61.418C102.56 61.658 102.58 61.668 102.6 61.628Z" fill="white"/>
<path d="M96.8799 44.1193C96.9399 44.0093 97.0299 44.0093 97.1099 43.9893C97.0699 43.8693 96.9999 43.8793 96.8799 44.1193Z" fill="white"/>
<path d="M159.34 40.8293C159.47 40.7193 159.36 40.6393 159.34 40.8293Z" fill="white"/>
<path d="M159.97 47.6992C159.94 47.8892 159.92 48.1392 159.92 48.5392C159.93 48.1192 159.95 47.8592 159.97 47.6992Z" fill="white"/>
<path d="M153.38 51.9883C153.38 51.9883 153.38 51.9883 153.37 51.9883C153.41 52.3283 153.4 52.2583 153.38 51.9883Z" fill="white"/>
<path d="M159.54 41.6194C159.49 41.4094 159.44 41.2294 159.38 41.1094C159.41 41.2394 159.46 41.4094 159.54 41.6194Z" fill="white"/>
<path d="M159.51 40.7992C159.55 40.8792 159.59 40.9192 159.62 40.9692C159.64 40.6792 159.62 40.4992 159.51 40.7992Z" fill="white"/>
<path d="M159.17 40.9298C159.24 40.8998 159.31 40.9798 159.38 41.1098C159.35 40.9898 159.34 40.8998 159.35 40.8398C159.31 40.8698 159.26 40.8998 159.17 40.9298Z" fill="white"/>
<path d="M113.11 56.9881C113.11 56.9381 113.09 56.8981 113.08 56.8281C112.95 57.5481 113.01 57.4381 113.11 56.9881Z" fill="white"/>
<path d="M143.58 59.7884C143.58 59.7884 143.58 59.7284 143.59 59.7084C143.59 59.6884 143.58 59.6684 143.57 59.6484V59.7984L143.58 59.7884Z" fill="white"/>
<path d="M143.11 61.0806C143.31 58.9206 143.42 59.1906 143.57 59.6406L143.42 54.6406L143.12 61.0806H143.11Z" fill="white"/>
<path d="M125.26 61.7278L125.58 63.2878C125.19 65.8578 124.91 64.9678 125.21 67.1578C125.26 61.7278 126.47 66.6078 126.51 61.1778L126.72 62.3178C126.66 62.2678 126.65 62.5878 126.59 62.5278C127.01 65.1278 126.9 58.5978 127.43 59.3678C127.62 59.7878 127.75 60.5678 127.62 61.2178L128.04 59.8778C128.16 59.9878 128.13 60.9278 128.01 60.8278L128.64 60.3978V60.5578C128.73 59.7078 128.93 58.3878 129.03 57.8278C129.19 58.6078 128.95 58.4078 128.99 59.0778L129.34 57.7678C129.48 59.1778 129.19 60.5378 128.95 60.3378C129.28 65.7578 129.24 58.9778 129.95 62.1378L129.62 62.8278C129.83 65.9078 130.09 64.7878 130.47 66.7078C130.38 65.7078 129.72 61.8678 130.1 60.5178C130.21 60.9278 130.35 61.1178 130.55 60.0278C130.55 61.9578 130.75 61.4878 131 61.3778L130.98 63.9378C131.25 63.1978 131.23 61.8978 131.39 60.7478C131.69 60.9978 131.75 62.9778 131.83 64.6478C132.31 65.0578 131.5 61.4678 132.07 60.9878C132.47 61.9678 132.76 60.9178 133.24 59.3878C133.52 60.2678 133.19 60.9578 133.29 61.6878L133.54 59.6478C133.6 59.6978 133.58 60.3278 133.57 60.6378C133.78 59.8478 133.59 58.0778 133.92 57.3878C134.01 54.5678 134.6 61.5078 135.01 58.3078C135.11 59.0378 134.96 59.8778 134.99 60.8678C135.55 58.7678 135.47 59.3378 135.93 56.5178L136.32 58.1978C136.03 56.2778 136.4 54.0078 136.72 52.1378C136.62 51.2078 136.53 50.3978 136.47 50.0078L136.99 48.6378C137.05 49.0578 137 49.9378 136.92 51.0078C136.96 50.7978 136.99 50.5878 137.01 50.3978C137.19 51.3478 137.1 52.8178 136.97 54.2478C136.91 53.7478 136.84 53.2078 136.78 52.6678C136.65 54.2178 136.53 55.9478 136.56 57.4478C136.59 57.1478 136.66 56.8978 136.73 56.7578C136.7 57.1778 136.68 57.5578 136.69 57.8178C136.71 58.0878 136.76 57.5178 136.85 56.8678L136.97 59.7178L137 58.5878L137.67 60.3678C138.15 57.4978 138.57 53.2678 139.34 52.0878C139.15 54.1778 139.3 55.5078 139.29 57.9778C139.08 55.3578 138.7 59.0878 138.3 58.5578C138.51 58.8378 138.46 60.0178 138.41 60.4278L139.12 58.0478C139.1 60.0778 139.27 59.5678 139.46 60.4078C139.32 56.3978 139.99 57.7378 140.28 56.5078C140.3 57.8478 140.23 59.2278 139.88 58.8978C140.27 61.9178 140.38 54.1978 140.76 56.7578C140.67 56.7878 140.63 56.5878 140.59 57.2678C140.79 56.0678 141.28 57.0178 141.17 58.1878L141.08 58.2178C141.65 58.6978 142.82 58.2478 142.9 54.8478C142.9 55.2878 142.83 58.9478 142.79 59.6378L143.81 48.1878C143.72 51.1078 144.06 58.0678 143.59 59.7178C143.73 60.1378 143.89 60.6178 144.18 59.5878C144.09 59.1678 143.95 55.3678 144.08 55.0978C144.43 58.3478 144.32 56.8378 144.75 59.6078C144.61 58.9878 144.77 54.3978 144.98 54.5478C144.95 55.2278 145 59.0678 144.92 59.5478L145.47 55.0478C145.33 55.8578 145.45 58.8578 145.57 60.1378C145.51 59.2578 146.04 60.2178 146.19 59.7678L145.96 58.7278C146.58 59.4078 146.57 52.4078 147.18 52.6378C147.11 53.5678 147 58.3578 147.31 58.9178C147.45 56.6178 147.94 47.8378 148.48 46.0678L148.58 47.3878L149 45.8878C148.74 49.3578 148.02 56.6478 147.62 59.4878C147.85 60.5278 147.68 61.0478 148.03 60.9178C148.15 62.1578 147.84 62.7878 147.74 62.8678L148.54 63.6678C148.5 60.9778 149.15 60.9678 149.12 58.7278L148.25 61.5178C148.21 58.8278 148.76 53.8878 149.32 54.3578C149.46 55.4278 149.21 59.1478 149.22 60.0378C149.29 59.1178 149.76 58.2678 149.81 58.9278L149.57 60.3678C149.89 61.3778 150.09 56.8078 150.47 59.3678C150.6 59.5378 150.86 62.8278 150.89 61.2378C150.68 58.1678 150.63 48.6778 150.78 46.3678C150.83 46.5778 151.47 49.2978 151.62 50.8178C151.84 53.2278 151.29 56.5478 151.48 58.6178C151.48 57.8778 151.61 56.9778 151.66 56.6878C151.8 57.3178 151.6 58.9678 151.9 58.6278C151.95 55.9078 152.51 58.8578 152.04 56.3278C152.33 55.5478 152.35 56.8878 152.7 56.7678C152.59 55.0078 153.01 50.7778 153.3 49.9978C153.28 50.6878 153.35 51.5978 153.38 52.0078C153.98 52.2578 154.31 53.4878 154.87 53.5178C154.92 54.1778 155.19 54.9778 155.08 56.1478C155.16 55.6678 155.23 54.7378 155.41 54.6778C155.74 57.0378 155.02 55.0478 155.28 57.8778C155.3 56.2978 155.73 55.6878 155.97 54.6978C155.89 52.2478 155.4 54.2278 155.15 55.2178C155.15 51.8478 155.58 48.3078 156.17 46.7478C156.64 45.9078 156.37 48.9278 156.45 48.4478C157.33 49.0378 157.2 42.5578 157.92 44.9878C158.21 47.1378 157.93 49.2578 158 50.8178C157.62 51.6278 157.42 49.4478 157.16 49.5378L157.48 50.5578C157.36 51.2778 157.11 51.8178 156.97 51.1978C157.21 53.1278 158.45 51.5678 159.13 53.3478C159.25 52.6278 159.46 51.8778 159.36 51.0178L159.15 51.3178C158.95 49.5878 159.55 48.9178 159.28 48.1078C159.57 46.8878 159.89 44.9678 160.29 45.9478L160.37 48.3978C160.37 47.6778 160.11 46.9378 159.99 47.6878C160.16 46.5978 160.61 51.0078 160.79 47.7978L160.51 46.0978C160.8 44.8678 161.15 42.2578 161.51 43.0378C161.35 40.6178 161.43 43.3178 161.17 40.4778C161.39 44.0078 160.25 40.3278 160.61 44.0278C160.35 40.7378 160.16 42.6378 159.82 39.8278C159.83 40.6378 159.94 41.3778 159.64 40.9778C159.63 41.2178 159.59 41.5178 159.57 41.6878C159.57 41.6678 159.56 41.6478 159.55 41.6278C159.55 41.6578 159.56 41.6978 159.57 41.7278C159.56 41.8478 159.56 41.8778 159.57 41.7578C159.64 42.1178 159.7 42.5378 159.72 42.9878C159.57 44.8478 159.09 44.7878 158.93 45.7478C158.75 45.3578 159 44.8178 158.91 43.9578L158.67 45.3978C158.65 43.6078 158.2 42.4078 158.62 41.3578L158.24 41.2778C158.02 40.2678 157.71 39.8678 157.52 40.6278C157.34 40.2378 157.07 42.6178 157.23 41.2078L156.64 42.3178V41.8678C156.05 41.6378 155.43 44.8478 154.76 41.5978C154.56 42.0478 154.36 42.6078 154.03 42.0978L153.97 40.5478C153.72 41.0878 153.21 38.9878 153.1 40.6078C152.83 36.4278 151.87 39.6978 151.43 38.9578L151.41 40.9878C151.1 40.8778 150.81 41.4478 150.43 42.2678L150.45 44.0578C150.12 45.5278 149.61 42.7778 149.09 42.9678C149.13 42.2778 149.26 42.4578 149.35 42.8778C148.73 38.8278 148.04 45.8178 147.48 42.8778C147.34 43.5278 147.24 43.3078 147.14 42.8578C147.15 42.8578 147.16 42.8178 147.17 42.7578C147.16 42.7378 147.13 42.7278 147.11 42.7378C147.05 42.4278 146.98 42.0678 146.92 41.7878C146.98 42.2278 147.03 42.5778 147.08 42.7478C146.97 42.7878 146.81 43.0078 146.65 43.4578L146.58 41.5278C146.58 41.5278 146.56 41.5478 146.54 41.5778C146.38 40.8678 146.41 42.4878 146.5 43.9378C146.42 44.2578 146.35 44.6378 146.29 45.0978C146.16 41.9878 145.87 46.1478 145.69 42.8278C145.58 44.4478 144.88 44.0478 144.8 47.4478C144.8 46.9978 144.75 46.7878 144.83 46.7578C144.65 46.3678 144.47 45.9878 144.31 46.9478L144.23 44.4978L143.84 47.7878C143.6 46.2978 143.5 45.4278 143.74 43.5478C143.17 46.4478 143.28 44.6378 142.79 47.5078L142.81 45.9278C142.64 45.9878 142.36 48.1078 142.26 46.7978C141.87 43.7878 140.35 46.3778 139.35 43.5778C139.54 48.2378 138.89 41.4878 138.85 45.1078C138.79 44.0078 138.65 43.3778 138.81 42.4278C138.3 43.5078 138.05 40.6778 137.7 43.7278C137.64 42.6178 137.81 42.1178 137.76 41.4578C137.72 41.6978 137.6 42.4178 137.55 41.7578C137.5 41.0978 137.62 40.8378 137.7 40.3578C137.18 40.5478 137.13 43.9378 137.09 47.1278C136.83 45.6178 136.7 45.8278 136.51 47.9278C136.42 46.8878 136.27 45.7978 136.59 45.4178C136.41 45.2678 135.49 43.8878 135.47 46.4478C135.41 45.7978 135.22 46.2578 135.17 46.5578C134.76 46.4078 134.73 46.1778 134.33 46.4178L134.44 46.8378C134.28 49.9178 134.11 47.5278 133.79 47.8978V47.5878C133.06 45.3578 133.48 48.6478 132.75 46.1078L132.79 48.0278C132.72 52.1578 132.15 45.5978 131.72 47.1678L131.87 48.2678C131.64 49.6778 131.23 42.6578 130.99 42.1378C130.94 41.7778 131.07 41.5678 131.14 41.2978C130.53 38.8578 131.06 43.8078 130.61 44.3978C130.53 43.0378 130.72 40.9478 130.41 40.6978C130.26 39.5978 129.53 45.0978 129.11 42.4978C129.2 43.5378 129.29 44.5878 129.08 45.3678C128.76 45.7378 128.21 41.4178 127.92 44.7178C127.88 44.4278 127.86 44.1578 127.86 43.8978C127.61 44.7478 127.06 45.3078 126.91 47.0978C126.68 40.4678 125.38 50.3178 125.39 44.2078L124.63 44.5378L124.65 43.9178C124.17 43.5178 124 44.9778 123.83 46.4478C123.72 46.0278 123.8 45.4578 123.81 45.1378C123.1 43.9078 123.03 44.1678 122.44 47.2078L122.38 45.2278C122.22 46.3778 121.36 42.1178 120.67 44.4278C120.67 44.1978 120.69 43.8178 120.75 43.5378C119.97 45.8678 118.89 38.0378 118.6 45.2578L118.09 47.0378C118.75 47.5978 117.99 50.1678 118.26 51.3678C118 51.7878 117.58 49.1878 117.91 48.8178L117.96 49.1778C118.08 45.4178 117.13 47.8478 117.15 45.2778C115.84 45.4678 114.57 43.3778 113.34 43.2178L113.48 46.1478L113.05 45.9778C112.94 45.2978 112.9 43.6878 113.2 43.8078C113.04 42.1478 112.69 45.1978 112.68 45.8278C112.08 44.6478 112.91 42.4178 112.73 42.3478L112.48 42.5678L112.54 42.9078C112.34 44.1078 112.32 45.3678 111.95 45.2278C111.72 44.6378 111.83 43.4178 111.74 43.3078C111.74 43.0978 111.71 42.9978 111.6 43.2178L111.06 42.9678L111.28 45.2778C111.04 46.4178 110.77 45.1578 111.02 47.7778C110.66 43.7378 109.01 46.3278 108.79 45.0778C108.46 46.7578 108.13 46.7278 107.72 46.5278C107.82 47.0078 107.88 49.6078 107.53 49.2878C107.66 43.9278 106.88 46.9578 106.6 43.1078C106.85 45.6678 105.6 43.7378 106 47.3678C105.71 46.9278 105.98 45.3578 105.76 44.0978C105.06 46.1778 104.22 42.7478 103.35 43.4478C103.34 44.1578 103.48 45.2278 103.3 46.2778L102.84 42.7578C102.67 43.0978 102.68 46.8178 102.37 44.3778C102.41 44.9678 102.48 45.8578 102.37 46.0878C100.67 42.6578 98.91 48.8978 97.18 42.4578C97.41 43.8278 97.26 43.9578 97.08 44.0078C97.2 44.3378 97.08 45.7478 97.1 46.6978L96.38 44.0478C96.25 46.6978 95.61 44.2278 95.53 46.7578L95.76 46.2978C95.46 49.2878 96.18 52.9378 96.14 56.7678C96.48 53.3678 97.04 61.7978 97.59 56.9378C97.71 57.7178 97.49 58.1778 97.55 59.0578C97.69 57.4178 97.86 57.0778 98.18 57.8078L98.14 58.2178C99.03 57.8178 99.41 59.4378 100.41 60.5178L100.34 58.6278C100.55 58.8778 100.6 59.4778 100.7 59.9478C100.95 57.0778 100.1 59.7878 100.32 56.6178C100.6 60.4778 101.83 56.6778 102.03 61.0578C102.36 61.0778 101.93 58.8678 102.26 58.8878L102.35 60.0778L102.43 58.5478C102.65 58.7978 102.76 60.2878 102.76 61.2878C102.71 61.1678 102.61 61.5678 102.55 61.6578C102.83 63.0578 103.34 61.1778 103.44 61.6378L103.12 60.9078C104.02 59.7978 105.12 61.3578 105.99 58.9478L105.92 58.0578C106.58 56.4078 106.45 59.0378 107.18 58.2778L107.15 58.4878C107.3 57.5978 107.49 57.1478 107.69 57.2478C107.51 58.2978 108.04 59.2778 107.79 60.4378C108.51 58.6578 108.15 59.0378 108.62 55.7178L108.73 57.2078C108.89 55.8678 108.91 55.1578 109.27 54.7678C108.97 56.0378 109.5 57.0278 109.17 58.7078C109.93 61.9578 110.31 55.4378 110.66 60.1778C111.01 56.0678 110 57.8978 110.19 57.0178C110.03 55.6778 110.48 53.9478 110.72 54.3578C110.96 54.4478 111.14 59.6178 111.75 59.5378C111.69 59.5178 111.68 59.8278 111.62 59.8078C111.85 60.8578 112.07 58.3878 112.35 60.0878C112.51 57.5978 112.72 60.2278 112.76 57.0678L112.2 57.7978C112.52 56.9678 112.82 53.2678 113.35 55.0578C113.31 55.6978 113.15 56.5378 113.04 57.0078C113.19 57.9378 113.34 56.3878 113.5 57.3478C113.45 60.5178 112.81 58.0378 112.47 60.4478C112.64 61.7878 113.12 58.1578 112.95 61.5878C113.2 57.2278 113.56 62.1378 113.97 58.8078L113.94 60.7078C114.01 60.4078 114.14 59.5178 114.26 59.5578L114.04 62.0178C114.38 59.9178 114.69 63.8578 115.01 62.7078C114.33 62.7678 114.86 60.4178 114.57 59.0378C115.4 56.4978 115.05 64.0078 115.98 63.0878C115.85 63.3578 115.5 61.9478 115.7 61.0678C115.88 61.4578 116.11 62.1878 116.22 63.1878C116.84 62.7878 116.12 61.2278 116.39 60.0678C116.6 62.3778 116.69 59.1278 116.97 58.3878V60.3178C117.68 61.5578 117.16 56.2978 117.79 57.7978L117.52 60.4678L117.85 59.7778L117.78 61.9778C118.14 60.3478 118.25 60.7678 118.61 61.3878C118.53 60.0278 118.66 57.8878 118.97 57.8278C119.18 58.9778 118.85 59.6578 119.29 59.3878C119.19 60.5978 119.08 62.1078 118.89 60.3378C118.87 60.9678 118.79 61.5478 118.77 62.1678C119 63.4878 119.35 62.4678 119.51 62.4478C119.45 62.3778 119.37 62.2678 119.34 61.9978L119.98 59.3178C120.08 60.0378 120 60.6278 119.92 61.1978C120.05 60.9878 120.14 60.0978 120.33 59.9378C120.28 61.5078 120.29 63.1278 120.02 63.8678L120.63 62.1278C120.67 62.8078 120.94 64.0078 120.86 64.5778C121.2 65.4978 121.69 61.5378 122.14 62.7478C122.16 62.4478 122.21 62.1578 122.31 61.9278C122.73 62.2778 123.11 64.2078 123.61 62.0578L123.89 64.8678C124.28 64.2278 123.51 61.3278 124.16 60.2678C124.62 59.3678 124.33 62.6678 124.49 63.4478C124.72 62.0278 125.12 59.1478 125.54 61.4378C125.4 61.9678 125.29 61.5478 125.16 61.7578L125.26 61.7278ZM130.09 60.4878C130 60.8878 129.81 62.1378 129.74 60.9978C129.85 58.7878 129.93 59.8478 130.09 60.4878ZM137.45 55.8378C137.38 56.4678 137.27 56.1578 137.15 55.4278C137.24 55.2678 137.34 55.3378 137.45 55.8378ZM157.94 42.3978C157.94 42.3978 157.94 42.4478 157.93 42.4878C157.72 41.7378 157.79 42.0378 157.94 42.3978ZM158.37 43.2378C158.41 42.9678 158.41 42.6978 158.39 42.4278C158.36 42.9178 158.26 42.9478 158.15 42.8078C158.18 43.3078 158.24 43.6578 158.37 43.2278V43.2378ZM111.74 43.9978L111.82 44.4978C111.63 45.0578 111.68 44.5478 111.74 43.9978Z" fill="white"/>
<path d="M136.62 58.4797C136.59 58.1497 136.59 57.7997 136.58 57.4297C136.54 57.7497 136.54 58.1297 136.62 58.4797Z" fill="white"/>
<path d="M122.25 62.7505C122.25 62.7505 122.25 62.7405 122.24 62.7305C122.24 62.8505 122.23 62.9605 122.23 63.0805L122.26 62.7505H122.25Z" fill="white"/>
<path d="M151.64 59.5977C151.55 59.3177 151.5 58.9677 151.47 58.5977C151.47 59.0677 151.51 59.4677 151.64 59.5977Z" fill="white"/>
<path d="M160.67 39.9592L160.39 40.4592C160.52 40.3592 160.57 40.7892 160.64 41.0892C160.64 40.6392 160.58 39.9892 160.67 39.9492V39.9592Z" fill="white"/>
<path d="M163.09 51.9005C163.13 51.6605 163.18 51.8705 163.22 51.6305V50.7305C163.04 50.7905 162.91 51.5105 163.09 51.8905V51.9005Z" fill="white"/>
<path d="M160.93 46.3686C160.95 47.9886 161.13 47.4386 161.32 47.1386C161.31 47.1386 161.3 47.1586 161.29 47.1386C161.35 44.8686 161.14 45.6186 160.93 46.3686Z" fill="white"/>
<path d="M161.37 47.0896C161.43 47.0096 161.49 46.9696 161.55 47.0496C161.57 46.1396 161.48 46.8596 161.37 47.0896Z" fill="white"/>
<path d="M158.92 42.1606C159.01 42.5806 158.98 40.0806 159.03 40.7406C159.13 38.6806 158.41 43.2406 158.92 42.1606Z" fill="white"/>
<path d="M161.09 51.7188L161.02 49.7188L160.91 51.3288L161.09 51.7188Z" fill="white"/>
<path d="M159.55 50.251L159.86 50.811C159.86 50.471 159.89 50.281 159.94 50.131C159.75 50.061 159.54 49.661 159.55 50.251Z" fill="white"/>
<path d="M159.94 50.1191C160.04 50.1591 160.13 50.1191 160.19 49.7891C160.14 49.8091 160.02 49.8791 159.94 50.1191Z" fill="white"/>
<path d="M160.66 52.3178L160.57 51.8978L160.35 51.7578L160.66 52.3178Z" fill="white"/>
<path d="M156.2 49.8694L155.86 50.4394C155.83 51.1294 155.92 51.5494 156.04 51.2694C156.12 50.7894 156.25 50.5194 156.2 49.8594V49.8694Z" fill="white"/>
<path d="M157.23 55.3481C157.14 54.9281 157.13 54.4881 157.08 53.8281V56.3081L157.23 55.3481Z" fill="white"/>
<path d="M156.24 55.9297C156.21 56.6197 155.75 57.9097 156.18 57.7497C156.21 57.0697 156.55 56.4897 156.24 55.9297Z" fill="white"/>
<path d="M151.12 52.7897L151.21 52.7597L151.19 48.6797L151.12 52.7897Z" fill="white"/>
<path d="M146.61 62.5402C147.01 63.5202 146.71 60.0202 147.07 61.2402C147.16 60.2802 146.77 60.2402 146.87 59.4102C146.63 60.4302 146.5 59.8602 146.61 62.5302V62.5402Z" fill="white"/>
<path d="M146.87 59.4091C146.91 59.2491 146.95 59.0491 146.99 58.7891C146.92 59.0391 146.89 59.2391 146.87 59.4091Z" fill="white"/>
<path d="M95.9299 41.9281L95.6699 41.0781L95.8399 42.4481L95.9299 41.9281Z" fill="white"/>
<path d="M95.43 44.9594L95.37 42.3594L95.21 44.7094C95.27 44.5894 95.38 44.3694 95.43 44.9594Z" fill="white"/>
<path d="M130.81 65.71L130.83 65.08C130.79 64.4 130.73 64.36 130.61 64.25L130.81 65.71Z" fill="white"/>
<path d="M127.3 63.7705L127.36 63.8305L127.25 61.4805L127.3 63.7705Z" fill="white"/>
<path d="M124.36 66.7679C124.48 66.8679 124.62 66.3479 124.74 66.4479C124.48 66.8679 124.32 63.8479 124.36 66.7679Z" fill="white"/>
</g>
<defs>
<clipPath id="clip0_20_2">
<rect width="173.33" height="104.61" fill="white"/>
</clipPath>
</defs>
</svg>
